<svg width="110" height="110" viewBox="0 0 110 110" fill="none" xmlns="http://www.w3.org/2000/svg">
<path d="M55.3031 35.0706C49.7697 35.0706 45.2695 30.5722 45.2695 25.0295C45.2695 19.4984 49.7697 15 55.3031 15C60.8364 15 65.3366 19.4984 65.3366 25.0295C65.3366 30.5607 60.8364 35.0706 55.3031 35.0706ZM55.3031 17.2951C51.0325 17.2951 47.5655 20.7607 47.5655 25.0295C47.5655 29.2984 51.044 32.7755 55.3031 32.7755C59.5736 32.7755 63.0406 29.2984 63.0406 25.0295C63.0406 20.7607 59.5621 17.2951 55.3031 17.2951Z" fill="#B4A37B"/>
<path d="M73.8994 52.5822H36.7042C36.3598 52.5822 36.0383 52.433 35.8202 52.1576C35.6021 51.8936 35.5103 51.5379 35.5791 51.2052C37.7374 40.3495 45.8537 32.7642 55.3018 32.7642C64.7498 32.7642 72.8662 40.3495 75.0244 51.2052C75.0933 51.5379 75.0014 51.8936 74.7833 52.1576C74.5652 52.433 74.2438 52.5822 73.8994 52.5822ZM38.1392 50.2871H72.4529C70.1339 41.256 63.2345 35.0592 55.2903 35.0592C47.3576 35.0707 40.4581 41.256 38.1392 50.2871Z" fill="#B4A37B"/>
<path d="M91.3375 82.6587C90.7061 82.6587 90.1895 82.1423 90.1895 81.5111V67.4538H21.1144V81.5111C21.1144 82.1423 20.5978 82.6587 19.9664 82.6587C19.335 82.6587 18.8184 82.1423 18.8184 81.5111V66.3062C18.8184 65.6751 19.335 65.1587 19.9664 65.1587H91.3375C91.9689 65.1587 92.4855 65.6751 92.4855 66.3062V81.5111C92.4855 82.1423 91.9804 82.6587 91.3375 82.6587Z" fill="#474747"/>
<path d="M55.3023 82.6588C54.6709 82.6588 54.1543 82.1424 54.1543 81.5113V54.8194C54.1543 54.1883 54.6709 53.6719 55.3023 53.6719C55.9337 53.6719 56.4503 54.1883 56.4503 54.8194V81.5113C56.4503 82.1424 55.9337 82.6588 55.3023 82.6588Z" fill="#474747"/>
<path d="M26.1548 95.6606H13.148C12.5166 95.6606 12 95.1442 12 94.5131V81.5113C12 80.8802 12.5166 80.3638 13.148 80.3638H26.1548C26.7862 80.3638 27.3028 80.8802 27.3028 81.5113V94.5131C27.3028 95.1442 26.7862 95.6606 26.1548 95.6606ZM14.296 93.3656H25.0068V82.6589H14.296V93.3656Z" fill="#474747"/>
<path d="M97.8482 95.6606H84.8414C84.21 95.6606 83.6934 95.1442 83.6934 94.5131V81.5113C83.6934 80.8802 84.21 80.3638 84.8414 80.3638H97.8482C98.4796 80.3638 98.9962 80.8802 98.9962 81.5113V94.5131C98.9962 95.1442 98.4796 95.6606 97.8482 95.6606ZM85.9894 93.3656H96.7002V82.6589H85.9894V93.3656Z" fill="#474747"/>
<path d="M60.1587 95.6606H47.1519C46.5205 95.6606 46.0039 95.1442 46.0039 94.5131V81.5113C46.0039 80.8802 46.5205 80.3638 47.1519 80.3638H60.1587C60.7901 80.3638 61.3067 80.8802 61.3067 81.5113V94.5131C61.3067 95.1442 60.8016 95.6606 60.1587 95.6606ZM48.3114 93.3656H59.0222V82.6589H48.3114V93.3656Z" fill="#474747"/>
</svg>
