<svg width="110" height="110" viewBox="0 0 110 110" fill="none" xmlns="http://www.w3.org/2000/svg">
<path d="M31.3828 92.2113H19.2828C18.6514 92.2113 18.1348 91.6949 18.1348 91.0638V52.6671C18.1348 52.0359 18.6514 51.5195 19.2828 51.5195H31.3942C32.0256 51.5195 32.5422 52.0359 32.5422 52.6671V91.0638C32.5307 91.6949 32.0256 92.2113 31.3828 92.2113ZM20.4308 89.9162H30.2462V53.8146H20.4308V89.9162Z" fill="#474747"/>
<path d="M51.0604 92.2117H38.9605C38.3291 92.2117 37.8125 91.6953 37.8125 91.0641V35.8443C37.8125 35.2132 38.3291 34.6968 38.9605 34.6968H51.0604C51.6918 34.6968 52.2084 35.2132 52.2084 35.8443V91.0641C52.2084 91.6953 51.6918 92.2117 51.0604 92.2117ZM40.097 89.9166H49.9009V36.9919H40.097V89.9166Z" fill="#474747"/>
<path d="M70.7359 92.2113H58.6246C57.9932 92.2113 57.4766 91.6949 57.4766 91.0638V52.6671C57.4766 52.0359 57.9932 51.5195 58.6246 51.5195H70.7359C71.3673 51.5195 71.8839 52.0359 71.8839 52.6671V91.0638C71.8839 91.6949 71.3673 92.2113 70.7359 92.2113ZM59.7726 89.9162H69.5879V53.8146H59.7726V89.9162Z" fill="#474747"/>
<path d="M90.4019 92.2117H78.2906C77.6592 92.2117 77.1426 91.6953 77.1426 91.0641V35.8443C77.1426 35.2132 77.6592 34.6968 78.2906 34.6968H90.4019C91.0333 34.6968 91.5499 35.2132 91.5499 35.8443V91.0641C91.5499 91.6953 91.0333 92.2117 90.4019 92.2117ZM79.4501 89.9166H89.2654V36.9919H79.4501V89.9166Z" fill="#474747"/>
<path d="M101.538 92.2115H8.148C7.5166 92.2115 7 91.6952 7 91.064C7 90.4329 7.5166 89.9165 8.148 89.9165H101.538C102.169 89.9165 102.686 90.4329 102.686 91.064C102.686 91.6952 102.169 92.2115 101.538 92.2115Z" fill="#474747"/>
<path d="M27.9741 38.8162C27.9741 40.2735 26.7917 41.4554 25.3337 41.4554C23.8758 41.4554 22.6934 40.2735 22.6934 38.8162C22.6934 37.3588 23.8758 36.1768 25.3337 36.1768C26.7917 36.1654 27.9741 37.3474 27.9741 38.8162Z" fill="#B4A37B"/>
<path d="M47.6499 20.6393C47.6499 22.0967 46.4675 23.2787 45.0096 23.2787C43.5516 23.2787 42.3691 22.0967 42.3691 20.6393C42.3691 19.182 43.5516 18 45.0096 18C46.4675 18 47.6499 19.182 47.6499 20.6393Z" fill="#B4A37B"/>
<path d="M67.316 38.8162C67.316 40.2735 66.1336 41.4554 64.6756 41.4554C63.2177 41.4554 62.0352 40.2735 62.0352 38.8162C62.0352 37.3588 63.2177 36.1768 64.6756 36.1768C66.1336 36.1654 67.316 37.3474 67.316 38.8162Z" fill="#B4A37B"/>
<path d="M86.9918 20.6393C86.9918 22.0967 85.8093 23.2787 84.3513 23.2787C82.8934 23.2787 81.7109 22.0967 81.7109 20.6393C81.7109 19.182 82.8934 18 84.3513 18C85.8093 18 86.9918 19.182 86.9918 20.6393Z" fill="#B4A37B"/>
<path d="M25.2416 39.9639C24.9316 39.9639 24.6217 39.8377 24.3921 39.5967C23.9673 39.1262 23.9903 38.4032 24.461 37.9786L44.2296 19.813C44.6658 19.4113 45.3431 19.4113 45.7908 19.813L64.6869 37.2557L83.583 19.813C84.0422 19.3769 84.7768 19.4114 85.2016 19.8819C85.6378 20.3524 85.6034 21.0753 85.1327 21.4999L65.4561 39.6656C65.0198 40.0672 64.3424 40.0672 63.8947 39.6656L44.9987 22.2114L26.0107 39.6656C25.8041 39.8606 25.5171 39.9639 25.2416 39.9639Z" fill="#B4A37B"/>
</svg>
