<svg width="110" height="110" viewBox="0 0 110 110" fill="none" xmlns="http://www.w3.org/2000/svg">
<path d="M80.436 63.8384C80.1375 63.8384 79.8505 63.7236 79.6209 63.5056L59.8983 43.7794C59.4506 43.3318 59.4506 42.6089 59.8983 42.1613C60.346 41.7138 61.0692 41.7138 61.5169 42.1613L81.2396 61.8876C81.6873 62.3351 81.6873 63.0581 81.2396 63.5056C81.0215 63.7351 80.723 63.8384 80.436 63.8384Z" fill="#474747"/>
<path d="M29.6377 68.5895C29.3392 68.5895 29.0522 68.4747 28.8226 68.2567L27.4909 66.937C22.0723 62.06 19.4893 58.1354 19.3974 54.6124C19.34 52.5928 20.1322 50.7567 21.7394 49.1502L36.8127 32.5453C42.4493 26.8994 47.9942 31.2026 52.0352 34.3354L52.4714 34.6682C52.9765 35.0584 53.0684 35.7813 52.678 36.2748C52.2877 36.7797 51.5644 36.8715 51.0708 36.4813L50.6346 36.1371C45.9622 32.5108 42.346 30.2387 38.4773 34.1059L23.404 50.7108C22.2101 51.9042 21.6705 53.1436 21.7049 54.5206C21.7738 57.3206 24.1961 60.8321 29.0866 65.2387L30.4527 66.6042C30.9004 67.0518 30.9004 67.7747 30.4527 68.2223C30.2231 68.4747 29.9247 68.5895 29.6377 68.5895Z" fill="#474747"/>
<path d="M82.4228 77.9989C80.9878 77.9989 79.5642 77.3333 78.2326 76.0137L72.4237 70.2071C71.976 69.7596 71.976 69.0366 72.4237 68.5891C72.8714 68.1415 73.5947 68.1415 74.0424 68.5891L79.8513 74.3956C80.9648 75.5088 82.7098 76.7022 85.0976 74.3268C86.0964 73.3284 87.761 71.6645 83.5019 67.4071L79.3691 63.276C78.9214 62.8284 78.9214 62.1055 79.3691 61.6579C79.8168 61.2104 80.5401 61.2104 80.9878 61.6579L85.1205 65.7891C89.0811 69.7481 89.5978 73.0645 86.7163 75.9448C85.3502 77.3104 83.8922 77.9989 82.4228 77.9989Z" fill="#474747"/>
<path d="M75.4774 84.9415C74.0424 84.9415 72.6189 84.2759 71.2872 82.9562L65.4784 77.1497C65.0306 76.7021 65.0306 75.9792 65.4784 75.5317C65.9261 75.0841 66.6494 75.0841 67.0971 75.5317L72.9059 81.3382C74.0195 82.4398 75.7644 83.6447 78.1523 81.2578C79.151 80.2595 80.8156 78.5956 76.5565 74.3382L72.4237 70.2071C71.976 69.7596 71.976 69.0366 72.4237 68.5891C72.8714 68.1415 73.5947 68.1415 74.0424 68.5891L78.1752 72.7202C82.1817 76.7251 82.6983 79.9611 79.7709 82.8759C78.4163 84.2529 76.9469 84.9415 75.4774 84.9415Z" fill="#474747"/>
<path d="M68.5209 91.8727C67.0629 91.8727 65.6624 91.2071 64.3536 89.8989L58.5448 84.0923C58.0971 83.6448 58.0971 82.9218 58.5448 82.4743C58.9925 82.0268 59.7157 82.0268 60.1634 82.4743L65.9723 88.2809C66.9022 89.2104 67.8321 89.6579 68.7275 89.5776C69.5311 89.5087 70.3691 89.0497 71.2071 88.212C72.2059 87.2137 73.8706 85.5497 69.6115 81.2923L65.4787 77.1612C65.0309 76.7137 65.0309 75.9907 65.4787 75.5432C65.9264 75.0956 66.6496 75.0956 67.0974 75.5432L71.2301 79.6743C75.2366 83.6793 75.7418 86.9153 72.8259 89.8301C71.586 91.0694 70.2773 91.7465 68.9112 91.8612C68.7964 91.8727 68.6586 91.8727 68.5209 91.8727Z" fill="#474747"/>
<path d="M61.5752 98.8153C60.1172 98.8153 58.7167 98.1497 57.408 96.8415L53.4588 92.894C53.0111 92.4465 53.0111 91.7235 53.4588 91.276C53.9066 90.8284 54.6298 90.8284 55.0775 91.276L59.0266 95.2235C59.9565 96.153 60.8864 96.5891 61.7818 96.5202C62.5854 96.4514 63.4234 95.9924 64.2615 95.1546C65.134 94.2825 65.4898 93.5137 65.421 92.653C65.3291 91.4596 64.3992 89.9793 62.6657 88.2465L58.533 84.1153C58.0853 83.6678 58.0853 82.9448 58.533 82.4973C58.9807 82.0497 59.7039 82.0497 60.1516 82.4973L64.2845 86.6284C66.4427 88.7858 67.5677 90.7022 67.7055 92.4694C67.8317 94.0186 67.2348 95.43 65.8802 96.7841C64.6404 98.0235 63.3316 98.7006 61.9655 98.8153C61.8507 98.8038 61.713 98.8153 61.5752 98.8153Z" fill="#474747"/>
<path d="M83.6502 67.0745C83.3517 67.0745 83.0647 66.9597 82.8351 66.7417C82.3873 66.2941 82.3873 65.5712 82.8351 65.1236L86.2561 61.704C88.5407 59.4204 89.9527 57.045 90.32 54.8417C90.7218 52.4777 89.9412 50.2974 88.0011 48.3581L72.7097 33.1991C71.0106 31.5007 68.7491 30.5941 66.1891 30.5941C66.1776 30.5941 66.1661 30.5941 66.1546 30.5941C61.9989 30.6056 57.3954 32.9466 53.2052 37.181L44.7789 46.3155C44.3541 46.786 43.6194 46.8089 43.1602 46.3843C42.6895 45.9597 42.6665 45.2253 43.0913 44.7663L51.5521 35.6089C56.2015 30.904 61.379 28.322 66.1546 28.3105C66.1661 28.3105 66.1776 28.3105 66.1891 28.3105C69.3805 28.3105 72.1931 29.4351 74.3284 31.581L89.6198 46.74C92.088 49.2073 93.1096 52.1335 92.5816 55.2318C92.1224 57.9171 90.4922 60.7171 87.8748 63.3335L84.4538 66.7532C84.2471 66.9597 83.9486 67.0745 83.6502 67.0745Z" fill="#474747"/>
<path d="M45.8122 56.4939C44.492 56.4939 43.2407 55.9202 42.0239 54.7841C40.7496 53.5907 40.0149 52.2939 39.8427 50.9283C39.6475 49.3103 40.2445 47.7497 41.6336 46.2693L47.2472 40.2792C47.6835 39.8202 48.4068 39.7972 48.866 40.2218C49.3252 40.6579 49.3481 41.3808 48.9233 41.8398L43.3096 47.83C42.4142 48.7825 42.0124 49.7349 42.1272 50.6415C42.2535 51.6513 42.9997 52.5464 43.5966 53.1087C44.6068 54.0611 46.3059 55.6447 50.4157 51.2611L59.9212 42.1497C60.3804 41.7136 61.1036 41.7251 61.5398 42.1841C61.9761 42.6431 61.9646 43.3661 61.5054 43.8021L52.0459 52.8677C49.7728 55.289 47.7179 56.4939 45.8122 56.4939Z" fill="#474747"/>
<path d="M31.8183 78.6761C30.3833 78.6761 28.7991 78.3319 27.6396 77.1269C24.9992 74.3843 26.8589 69.8056 26.9393 69.6105C26.9967 69.4728 27.0771 69.3466 27.1919 69.2433L30.1422 66.2941C32.7252 63.7121 34.9293 62.2547 36.9154 61.8187C38.7522 61.417 40.3709 61.9105 41.737 63.2646C42.9768 64.5039 43.5738 66.0302 43.4705 67.6597C43.3557 69.3925 42.4488 71.1253 40.7727 72.8007L35.7674 77.804C35.6526 77.9187 35.5033 78.0105 35.3426 78.0679C35.2163 78.1253 33.6436 78.6761 31.8183 78.6761ZM28.9827 70.6892C28.7302 71.4351 27.9381 74.1318 29.2927 75.5318C30.6474 76.9433 33.5058 76.2318 34.3209 75.9794L39.131 71.1712C40.3823 69.9204 41.0826 68.658 41.163 67.499C41.2319 66.5351 40.876 65.6515 40.1068 64.8826C39.3033 64.0793 38.4652 63.8154 37.3976 64.0564C35.8822 64.3892 33.988 65.6859 31.7609 67.9122L28.9827 70.6892Z" fill="#474747"/>
<path d="M38.0991 85.16C36.7789 85.16 35.3209 84.8387 34.2418 83.7255C31.8081 81.201 33.5186 77.001 33.5875 76.8288C33.6449 76.6911 33.7252 76.5649 33.84 76.4616L36.5034 73.7993C38.8453 71.4583 40.8428 70.1502 42.6222 69.7944C44.2639 69.4616 45.7448 69.9321 46.9961 71.1944C49.4643 73.6616 49.1773 76.8977 46.2384 79.8354L41.7267 84.3452C41.6119 84.4599 41.4627 84.5518 41.302 84.6091C41.1987 84.655 39.7637 85.16 38.0991 85.16ZM35.6424 77.9075C35.4127 78.596 34.7355 80.937 35.8949 82.1419C36.9626 83.2551 39.2815 82.8419 40.2917 82.5321L44.6197 78.2173C46.6632 76.1747 46.9157 74.3616 45.3774 72.8239C44.6541 72.101 43.9653 71.8715 43.0814 72.0551C41.7841 72.319 40.1081 73.4551 38.1335 75.4403L35.6424 77.9075Z" fill="#474747"/>
<path d="M43.7474 91.0125C42.5305 91.0125 41.1874 90.7256 40.2001 89.6928C37.9615 87.3633 39.5227 83.5191 39.5916 83.3584C39.649 83.2207 39.7294 83.0945 39.8442 82.9912L42.2435 80.5929C44.7576 78.0798 48.4772 75.1076 51.7375 78.3666C52.8281 79.4568 54.9519 82.406 51.175 86.1929L47.111 90.2552C46.9962 90.3699 46.847 90.4617 46.6863 90.5191C46.5829 90.542 45.2742 91.0125 43.7474 91.0125ZM41.6465 84.4256C41.4399 85.0568 40.8659 87.065 41.8646 88.0978C42.783 89.0502 44.7806 88.6945 45.676 88.4305L49.5563 84.5633C51.8523 82.2568 50.9798 80.8453 50.1188 79.9847C49.4185 79.2847 48.1098 77.9765 43.8736 82.2109L41.6465 84.4256Z" fill="#474747"/>
<path d="M48.3844 95.9351C47.3282 95.9351 46.1458 95.6711 45.2618 94.7531C43.2873 92.7105 44.6534 89.3596 44.7108 89.2219C44.7682 89.0842 44.8486 88.958 44.9634 88.8547L46.9838 86.835C50.359 83.4613 52.8501 82.9334 55.0543 85.1367C56.0186 86.0891 56.5008 87.0646 56.5352 88.1203C56.5811 89.3482 55.9842 90.5875 54.7673 91.8039L51.3347 95.2351C51.2199 95.3498 51.0707 95.4416 50.91 95.499C50.7263 95.5678 49.6472 95.9351 48.3844 95.9351ZM46.7657 90.2892C46.5361 90.9662 46.2377 92.4465 46.9265 93.158C47.6267 93.8925 49.2224 93.5941 49.9227 93.399L53.1601 90.1629C53.9063 89.417 54.2737 88.7514 54.2622 88.1891C54.2507 87.7416 53.9752 87.2711 53.4471 86.7432C52.7468 86.0432 51.8858 85.1711 48.614 88.4301L46.7657 90.2892Z" fill="#474747"/>
<path d="M93.0375 52.4887C92.7275 52.4887 92.4405 52.3624 92.2224 52.1559L66.3355 26.2783C65.8878 25.8308 65.8878 25.1078 66.3355 24.6603L78.6538 12.3359C79.1015 11.8884 79.8248 11.8884 80.2725 12.3359L106.159 38.2135C106.378 38.4316 106.492 38.7184 106.492 39.0283C106.492 39.3381 106.366 39.625 106.159 39.843L93.8296 52.1674C93.6344 52.3739 93.336 52.4887 93.0375 52.4887ZM68.7693 25.4636L93.0261 49.7231L103.726 39.0282L79.4574 14.7802L68.7693 25.4636Z" fill="#B4A37B"/>
<path d="M17.5719 56.4943C17.2849 56.4943 17.0093 56.391 16.7912 56.196L3.37111 43.8943C2.90043 43.4697 2.87747 42.7353 3.30223 42.2763L28.0531 15.3091C28.4778 14.8386 29.2125 14.8042 29.6717 15.2402L43.0919 27.5419C43.3215 27.7484 43.4477 28.0353 43.4592 28.3337C43.4707 28.632 43.3674 28.9304 43.1607 29.1599L18.4099 56.1271C18.2032 56.3566 17.9162 56.4828 17.6177 56.4943C17.6063 56.4828 17.5833 56.4943 17.5719 56.4943ZM5.78188 42.9648L17.503 53.7173L40.7041 28.4369L28.983 17.6845L5.78188 42.9648Z" fill="#B4A37B"/>
</svg>
