<svg width="110" height="110" viewBox="0 0 110 110" fill="none" xmlns="http://www.w3.org/2000/svg">
<path d="M54.5336 97.0113C31.08 97.0113 12.0117 77.9392 12.0117 54.5064C12.0117 31.0736 31.0915 12.0015 54.5336 12.0015C77.9873 12.0015 97.0556 31.0736 97.0556 54.5064C97.0556 77.9392 77.9758 97.0113 54.5336 97.0113ZM54.5336 14.2965C32.3543 14.2965 14.3077 32.3359 14.3077 54.5064C14.3077 76.6769 32.3543 94.7162 54.5336 94.7162C76.713 94.7162 94.7596 76.6769 94.7596 54.5064C94.7596 32.3359 76.713 14.2965 54.5336 14.2965Z" fill="#474747"/>
<path d="M54.5334 97.0113C54.212 97.0113 53.8905 96.8736 53.6609 96.6096C53.2477 96.1277 53.3051 95.4047 53.7872 94.9916C68.7916 82.2424 76.2421 68.5866 75.9436 54.4145C75.45 31.1653 54.0398 14.2276 53.8331 14.0555C53.328 13.6653 53.2477 12.9424 53.638 12.4489C54.0283 11.944 54.7515 11.8637 55.2452 12.2539C56.1636 12.9653 77.723 30.0408 78.2396 54.3686C78.5611 69.2637 70.835 83.5276 55.2796 96.7473C55.05 96.9194 54.786 97.0113 54.5334 97.0113Z" fill="#B4A37B"/>
<path d="M54.5225 97.0114C54.2584 97.0114 53.9944 96.9196 53.7763 96.736C38.2209 83.5163 30.4948 69.2523 30.8163 54.3573C31.3329 30.0294 52.9038 12.954 53.8107 12.2425C54.3044 11.8523 55.0276 11.9441 55.4179 12.4376C55.8082 12.931 55.7164 13.654 55.2228 14.0441C55.0046 14.2163 33.5944 31.1884 33.1008 54.4146C32.8023 68.5868 40.2528 82.231 55.2572 94.9802C55.7394 95.3933 55.7968 96.1163 55.3835 96.5983C55.1768 96.8737 54.8554 97.0114 54.5225 97.0114Z" fill="#B4A37B"/>
<path d="M83.3259 85.3523C83.0849 85.3523 82.8553 85.2834 82.6486 85.1342C69.4122 75.3916 48.8745 67.4507 26.2474 84.9277C25.7423 85.3178 25.0305 85.226 24.6402 84.7211C24.2499 84.2162 24.3417 83.4932 24.8468 83.1145C48.6104 64.7654 70.1354 73.085 84.0147 83.2867C84.5199 83.6654 84.6347 84.3769 84.2558 84.8933C84.0262 85.1916 83.6818 85.3523 83.3259 85.3523Z" fill="#474747"/>
<path d="M53.7292 37.7753C44.683 37.7753 34.615 34.8262 24.1797 26.5524C23.686 26.1622 23.5942 25.4393 23.996 24.9458C24.3863 24.4524 25.1096 24.3721 25.6032 24.7622C48.7584 43.1114 69.7667 34.7803 83.3017 24.5672C83.8068 24.1885 84.53 24.2917 84.9089 24.7967C85.2877 25.3016 85.1844 26.0245 84.6793 26.4032C77.8028 31.5671 66.8394 37.7753 53.7292 37.7753Z" fill="#474747"/>
<path d="M54.5328 97.0113C53.9014 97.0113 53.3848 96.4949 53.3848 95.8638V13.149C53.3848 12.5179 53.9014 12.0015 54.5328 12.0015C55.1642 12.0015 55.6808 12.5179 55.6808 13.149V95.8638C55.6808 96.4949 55.1642 97.0113 54.5328 97.0113Z" fill="#474747"/>
<path d="M95.9073 55.654H13.148C12.5166 55.654 12 55.1376 12 54.5064C12 53.8753 12.5166 53.3589 13.148 53.3589H95.9073C96.5387 53.3589 97.0553 53.8753 97.0553 54.5064C97.0553 55.1376 96.5387 55.654 95.9073 55.654Z" fill="#474747"/>
</svg>
