<svg width="150" height="150" viewBox="0 0 150 150" fill="none" xmlns="http://www.w3.org/2000/svg">
<path d="M135 116.738H88.0107V105.841C88.0107 92.8413 98.5312 82.3228 111.497 82.3228C124.48 82.3228 134.984 92.8577 134.984 105.841V116.738H135Z" stroke="#9F9F9F" stroke-width="3.5" stroke-miterlimit="10" stroke-linecap="round" stroke-linejoin="round"/>
<path d="M111.514 50.2574C111.514 50.2574 111.579 58.8037 126.531 60.4307V67.3828C126.531 75.6826 119.819 82.421 111.514 82.421C103.225 82.421 96.4961 75.6826 96.4961 67.3828V60.4307C110.283 61.7291 111.514 49.8794 111.514 49.8794" stroke="#9F9F9F" stroke-width="3.5" stroke-miterlimit="10" stroke-linecap="round" stroke-linejoin="round"/>
<path d="M101.404 63.9966C102.816 62.5832 105.097 62.5832 106.509 63.9966" stroke="#9F9F9F" stroke-width="3.5" stroke-miterlimit="10" stroke-linecap="round" stroke-linejoin="round"/>
<path d="M115.896 63.9966C117.307 62.5832 119.588 62.5832 121 63.9966" stroke="#9F9F9F" stroke-width="3.5" stroke-miterlimit="10" stroke-linecap="round" stroke-linejoin="round"/>
<path d="M108.756 75.1401C110.266 76.6851 112.761 76.6851 114.271 75.1401" stroke="#9F9F9F" stroke-width="3.5" stroke-miterlimit="10" stroke-linecap="round" stroke-linejoin="round"/>
<path d="M120.426 79.4789H132.177C133.047 77.1122 133.507 74.5648 133.507 71.9023C133.507 51.2771 123.954 42.2378 111.809 42.2378C99.6637 42.2378 89.5205 51.2771 89.5205 71.9023C89.5205 74.5648 89.9965 77.1122 90.8499 79.4789H102.601" stroke="#9F9F9F" stroke-width="3.5" stroke-miterlimit="10" stroke-linecap="round" stroke-linejoin="round"/>
<path d="M83.0123 106.824H23.471C18.8597 106.824 14.9712 103.046 15.0002 98.4431C15.0146 96.1705 15.9397 94.1006 17.4431 92.6096C18.9464 91.1042 21.028 90.1633 23.3264 90.1633H77.2302C80.4248 90.1633 83.0123 87.5723 83.0123 84.3733V39.79C83.0123 36.591 80.4248 34 77.2302 34H23.3264C21.028 34 18.9464 34.9264 17.4431 36.4463C15.9397 37.9517 15.0002 40.0361 15.0002 42.3377" stroke="#9F9F9F" stroke-width="3.5" stroke-miterlimit="10" stroke-linecap="round" stroke-linejoin="round"/>
<path d="M15 42.3232V98.4866" stroke="#9F9F9F" stroke-width="3.5" stroke-miterlimit="10" stroke-linecap="round" stroke-linejoin="round"/>
<path d="M21.2324 98.4863H81.9302" stroke="#4596C1" stroke-width="3.5" stroke-miterlimit="10" stroke-linecap="round" stroke-linejoin="round"/>
<path d="M22.3145 40.9912V79.6252" stroke="#9F9F9F" stroke-width="3.5" stroke-miterlimit="10" stroke-linecap="round" stroke-linejoin="round"/>
<path d="M72.0825 41.7412H33.0508C32.4985 41.7412 32.0508 42.1889 32.0508 42.7412V53.8893C32.0508 54.4416 32.4985 54.8893 33.0508 54.8893H72.0825C72.6348 54.8893 73.0825 54.4416 73.0825 53.8893V42.7412C73.0825 42.1889 72.6348 41.7412 72.0825 41.7412Z" fill="#4596C1" stroke="#4596C1" stroke-miterlimit="10" stroke-linecap="round" stroke-linejoin="round"/>
</svg>
