<svg width="150" height="150" viewBox="0 0 150 150" fill="none" xmlns="http://www.w3.org/2000/svg">
<path d="M81.9205 61.1H76.9205V55.79H70.3905V61.1H65.4805V67.23H70.3905V72.54H76.9205V67.23H81.9205V61.1Z" fill="#4596C1" stroke="#4596C1" stroke-miterlimit="10" stroke-linecap="round" stroke-linejoin="round"/>
<path d="M90.28 64.49C90.28 74.24 82.83 82.14 73.64 82.14C64.45 82.14 57 74.24 57 64.49C57 50.23 73.64 35 73.64 35C73.64 35 90.28 49.85 90.28 64.49Z" stroke="#4596C1" stroke-width="3.5" stroke-miterlimit="10" stroke-linecap="round" stroke-linejoin="round"/>
<path d="M102.251 85.2376L102.344 68.6295C102.36 66.1639 104.125 64.1789 106.293 64.1944L107.083 64.2099C109.251 64.2255 111.001 66.2259 111.001 68.676L110.892 89.1609C110.892 89.223 110.892 89.285 110.892 89.347C110.939 90.5566 110.552 91.7662 109.731 92.6811L95.1897 109.01L95.1123 115.073" stroke="#9F9F9F" stroke-width="3.5" stroke-linecap="round" stroke-linejoin="round"/>
<path d="M95.2052 98.9306L100.254 93.4876C101.802 91.7508 101.802 88.9285 100.285 87.1917L99.7271 86.5559C98.194 84.8036 95.7163 84.8036 94.1677 86.5249L79.6264 102.854C78.0778 104.591 78.5114 106.312 78.4495 109.15L78.2637 115.073" stroke="#9F9F9F" stroke-width="3.5" stroke-linecap="round" stroke-linejoin="round"/>
<path d="M97.2637 81.5473V73.1269C97.2637 71.08 98.9207 69.4053 100.98 69.4053" stroke="#9F9F9F" stroke-width="3.5" stroke-linecap="round" stroke-linejoin="round"/>
<path d="M46.7495 85.2388L46.6566 68.6307C46.6411 66.1651 44.8758 64.1801 42.7077 64.1956L41.9179 64.2111C39.7499 64.2266 38 66.2271 38 68.6772L38.1084 89.1621C38.1084 89.2241 38.1084 89.2862 38.1239 89.3482C38.0775 90.5577 38.4646 91.7673 39.2854 92.6822L53.8266 109.011L53.9041 115.074" stroke="#9F9F9F" stroke-width="3.5" stroke-linecap="round" stroke-linejoin="round"/>
<path d="M53.7792 98.9306L48.7307 93.4876C47.1822 91.7508 47.1667 88.9285 48.6998 87.1917L49.2573 86.5559C50.7904 84.8036 53.2681 84.8036 54.8167 86.5249L69.3579 102.854C70.9065 104.591 70.4729 106.312 70.5349 109.15L70.7052 115.073" stroke="#9F9F9F" stroke-width="3.5" stroke-linecap="round" stroke-linejoin="round"/>
<path d="M51.7205 81.5473V73.1269C51.7205 71.08 50.0635 69.4053 48.0039 69.4053" stroke="#9F9F9F" stroke-width="3.5" stroke-linecap="round" stroke-linejoin="round"/>
</svg>
