<svg width="150" height="150" viewBox="0 0 150 150" fill="none" xmlns="http://www.w3.org/2000/svg">
<path d="M101.444 58.2939C101.444 60.4832 99.7571 62.2637 97.6664 62.2637C95.585 62.2637 93.8887 60.4832 93.8887 58.2939C93.8887 55.0871 97.6664 51.6714 97.6664 51.6714C97.6664 51.6714 101.444 55.0053 101.444 58.2939Z" fill="#4596C1" stroke="#4596C1" stroke-miterlimit="10" stroke-linecap="round" stroke-linejoin="round"/>
<path d="M109 68.8861C109 71.0754 107.313 72.856 105.222 72.856C103.141 72.856 101.444 71.0754 101.444 68.8861C101.444 65.6794 105.222 62.2637 105.222 62.2637C105.222 62.2637 109 65.5976 109 68.8861Z" fill="#4596C1" stroke="#4596C1" stroke-miterlimit="10" stroke-linecap="round" stroke-linejoin="round"/>
<path d="M60.6445 46.5564V33.9062H69.3184V46.5564" stroke="#9F9F9F" stroke-width="3.5" stroke-miterlimit="10" stroke-linecap="round" stroke-linejoin="round"/>
<path d="M76.9642 37.4775H69.3633V41.6539H76.9642V37.4775Z" stroke="#9F9F9F" stroke-width="3.5" stroke-miterlimit="10" stroke-linecap="round" stroke-linejoin="round"/>
<path d="M93.3131 46.7082L76.9629 41.6541V37.4777L93.3131 32V46.7082Z" stroke="#9F9F9F" stroke-width="3.5" stroke-miterlimit="10" stroke-linecap="round" stroke-linejoin="round"/>
<path d="M77.0249 118.464H51.9102C45.8809 118.464 41 113.576 41 107.539V75.0355C41 68.9979 45.8809 64.1104 51.9102 64.1104H77.0249C83.0542 64.1104 87.9351 68.9979 87.9351 75.0355V107.539C87.9351 113.576 83.0542 118.464 77.0249 118.464Z" stroke="#9F9F9F" stroke-width="3.5" stroke-miterlimit="10" stroke-linecap="round" stroke-linejoin="round"/>
<path d="M77.81 64.14H51.2295V50.9753C51.2295 48.8568 52.9522 47.1318 55.0677 47.1318H73.9868C76.1024 47.1318 77.8251 48.8568 77.8251 50.9753V64.14H77.81Z" stroke="#9F9F9F" stroke-width="3.5" stroke-miterlimit="10" stroke-linecap="round" stroke-linejoin="round"/>
<path d="M51.2295 57.4062H77.8099" stroke="#9F9F9F" stroke-width="3.5" stroke-miterlimit="10" stroke-linecap="round" stroke-linejoin="round"/>
<path d="M87.9351 76.457H41V104.572H87.9351V76.457Z" stroke="#9F9F9F" stroke-width="3.5" stroke-miterlimit="10" stroke-linecap="round" stroke-linejoin="round"/>
<path d="M74.4855 87.5185H68.7282V81.4053H61.2029V87.5185H55.5664V94.5851H61.2029V100.698H68.7282V94.5851H74.4855V87.5185Z" fill="#4596C1" stroke="#4596C1" stroke-width="0.5" stroke-miterlimit="10" stroke-linecap="round" stroke-linejoin="round"/>
</svg>
