<svg width="130" height="130" viewBox="0 0 130 130" fill="none" xmlns="http://www.w3.org/2000/svg">
<g clip-path="url(#clip0)">
<path d="M79.5117 26.1284H96.7609C98.3665 26.1284 99.6663 27.6395 99.6663 29.5061V102.394C99.6663 104.26 98.3665 105.772 96.7609 105.772H33.2385C31.6328 105.772 30.333 104.26 30.333 102.394V29.5061C30.333 27.6395 31.6328 26.1284 33.2385 26.1284H50.4877" stroke="#010101" stroke-width="3" stroke-miterlimit="10" stroke-linecap="round"/>
<path d="M78.1503 31.1241H51.8483C51.099 31.1241 50.4873 30.413 50.4873 29.5419V23.2487C50.4873 22.3776 51.099 21.6665 51.8483 21.6665H78.1503C78.8996 21.6665 79.5112 22.3776 79.5112 23.2487V29.5419C79.5112 30.413 78.8996 31.1241 78.1503 31.1241Z" fill="white" stroke="#010101" stroke-width="3" stroke-miterlimit="10" stroke-linecap="round"/>
<path d="M80.2195 80.8535H50.626" stroke="black" stroke-width="3" stroke-miterlimit="10" stroke-linecap="round" stroke-linejoin="round"/>
<path d="M80.2195 89.3086H50.626" stroke="black" stroke-width="3" stroke-miterlimit="10" stroke-linecap="round" stroke-linejoin="round"/>
<path d="M72.9776 51.0033C72.7165 50.5166 72.1104 50.3337 71.6237 50.5948L63.9292 54.7225C63.4425 54.9835 63.2596 55.5897 63.5207 56.0764L73.1233 73.9769C73.5214 74.7189 74.6023 74.6668 74.9271 73.8899L76.4019 70.3626C76.5805 69.9356 77.0288 69.6869 77.4857 69.7615L81.5729 70.4287C82.3911 70.5623 83.0071 69.6996 82.6153 68.9691L72.9776 51.0033Z" fill="#4596C1"/>
<path d="M57.0585 51.0033C57.3196 50.5166 57.9258 50.3337 58.4125 50.5948L66.1069 54.7225C66.5936 54.9835 66.7765 55.5897 66.5154 56.0764L56.9128 73.9769C56.5148 74.7189 55.4338 74.6668 55.109 73.8899L53.6342 70.3626C53.4556 69.9356 53.0073 69.6869 52.5505 69.7615L48.4632 70.4287C47.645 70.5623 47.029 69.6996 47.4209 68.9691L57.0585 51.0033Z" fill="#4596C1"/>
<circle cx="64.9993" cy="45.2439" r="11.7073" fill="#4596C1"/>
</g>
<defs>
<clipPath id="clip0">
<rect width="130" height="130" fill="white"/>
</clipPath>
</defs>
</svg>
