<svg width="130" height="130" viewBox="0 0 130 130" fill="none" xmlns="http://www.w3.org/2000/svg">
<g clip-path="url(#clip0)">
<path d="M102.975 84.2686L89.4012 70.6779C86.7237 68.0005 82.3855 68.0005 79.7081 70.6779L73.9973 76.3887C67.2019 69.5934 60.4236 62.798 53.6282 56.0196L59.339 50.3088C62.0165 47.6314 62.0165 43.2932 59.339 40.5988L45.7652 27.0081C43.0878 24.3306 38.7496 24.3306 36.0552 27.0081L30.3444 32.7189C29.9377 33.1256 29.531 33.5323 29.1412 33.922C24.8539 38.2094 23.7694 44.7505 26.4807 50.1733C37.9362 73.0165 56.9835 92.0638 79.8267 103.519C85.2494 106.231 91.7906 105.146 96.0779 100.859C96.4846 100.452 96.8914 100.045 97.2811 99.6556L102.992 93.9448C105.669 91.2843 105.669 86.9461 102.975 84.2686Z" stroke="black" stroke-width="3" stroke-miterlimit="10" stroke-linecap="round" stroke-linejoin="round"/>
<path d="M87.2835 25.1099C77.5904 25.1099 69.7275 32.9728 69.7275 42.6659C69.7275 45.6145 70.4561 48.3937 71.744 50.8339L70.4561 55.6127L68.626 62.4249L75.4382 60.5948L81.0643 59.0866C82.9962 59.8152 85.0975 60.222 87.2666 60.222C96.9597 60.222 104.823 52.359 104.823 42.6659C104.84 32.9728 96.9766 25.1099 87.2835 25.1099Z" fill="#4596C1"/>
<circle cx="80.3173" cy="42.872" r="1.70208" fill="black"/>
<circle cx="87.1259" cy="42.872" r="1.70208" fill="black"/>
<circle cx="94.7851" cy="42.872" r="1.70208" fill="black"/>
</g>
<defs>
<clipPath id="clip0">
<rect width="130" height="130" fill="white"/>
</clipPath>
</defs>
</svg>
