<svg width="130" height="130" viewBox="0 0 130 130" fill="none" xmlns="http://www.w3.org/2000/svg">
<g clip-path="url(#clip0)">
<path d="M99.2126 69.3774L99.3272 48.9298C99.3463 45.8941 101.523 43.4503 104.196 43.4693L105.169 43.4885C107.842 43.5076 110 45.9704 110 48.987L109.866 74.2077C109.866 74.2841 109.866 74.3604 109.866 74.4368C109.923 75.926 109.446 77.4152 108.434 78.5417L90.5066 98.6456L90.4111 106.111" stroke="black" stroke-width="3" stroke-linecap="round" stroke-linejoin="round"/>
<path d="M90.5264 86.2363L96.7505 79.5349C98.6597 77.3966 98.6597 73.9219 96.7886 71.7835L96.1013 71.0008C94.2112 68.8434 91.1565 68.8434 89.2473 70.9626L71.3198 91.0666C69.4106 93.205 69.9451 95.3242 69.8687 98.818L69.6396 106.111" stroke="black" stroke-width="3" stroke-linecap="round" stroke-linejoin="round"/>
<path d="M93.0645 64.8338V54.4668C93.0645 51.9466 95.1073 49.8848 97.6465 49.8848" stroke="black" stroke-width="3" stroke-linecap="round" stroke-linejoin="round"/>
<path d="M30.787 69.3774L30.6725 48.9298C30.6534 45.8941 28.4769 43.4503 25.804 43.4693L24.8303 43.4885C22.1574 43.5076 20 45.9704 20 48.987L20.1337 74.2077C20.1337 74.2841 20.1337 74.3604 20.1528 74.4368C20.0955 75.926 20.5728 77.4152 21.5847 78.5417L39.5121 98.6456L39.6076 106.111" stroke="black" stroke-width="3" stroke-linecap="round" stroke-linejoin="round"/>
<path d="M39.4551 86.2363L33.231 79.5349C31.3218 77.3966 31.3027 73.9219 33.1929 71.7835L33.8802 71.0008C35.7703 68.8434 38.8251 68.8434 40.7343 70.9626L58.6617 91.0666C60.5709 93.205 60.0364 95.3242 60.1127 98.818L60.3227 106.111" stroke="black" stroke-width="3" stroke-linecap="round" stroke-linejoin="round"/>
<path d="M36.9151 64.8338V54.4668C36.9151 51.9466 34.8723 49.8848 32.333 49.8848" stroke="black" stroke-width="3" stroke-linecap="round" stroke-linejoin="round"/>
<circle cx="65.0006" cy="48.903" r="24.903" fill="#4596C1"/>
<path d="M65.9434 38.8545C67.9384 38.8545 69.5746 39.2292 70.8521 39.9786C71.1496 40.1431 71.3421 40.3899 71.4296 40.7189C71.5171 41.0296 71.4734 41.3404 71.2984 41.6511C71.1234 41.9801 70.9046 42.1903 70.6421 42.2817C70.3796 42.3548 70.0996 42.3183 69.8021 42.172C69.2421 41.8796 68.6559 41.6694 68.0434 41.5414C67.4484 41.3952 66.7659 41.3221 65.9959 41.3221C65.3834 41.3221 64.8321 41.3952 64.3421 41.5414C63.8696 41.6876 63.4671 41.8887 63.1346 42.1446C62.8021 42.4005 62.5396 42.7021 62.3471 43.0494C62.1721 43.3784 62.0846 43.7348 62.0846 44.1187V44.3929C62.0846 44.795 62.1459 45.1514 62.2684 45.4621C62.3909 45.7546 62.6096 46.0288 62.9246 46.2847C63.2396 46.5223 63.6596 46.7416 64.1846 46.9427C64.7271 47.1255 65.4096 47.3083 66.2321 47.4911C67.3871 47.747 68.3584 48.0394 69.1459 48.3684C69.9334 48.6974 70.5721 49.0904 71.0621 49.5474C71.5521 49.9861 71.9021 50.4979 72.1121 51.0828C72.3221 51.6677 72.4271 52.3257 72.4271 53.0568V53.4407C72.4271 55.1589 71.8496 56.5115 70.6946 57.4985C69.5396 58.4673 67.8771 58.9516 65.7071 58.9516C64.6046 58.9516 63.5371 58.8054 62.5046 58.5129C61.4896 58.2022 60.6234 57.8001 59.9059 57.3066C59.5734 57.1055 59.3809 56.8405 59.3284 56.5115C59.2934 56.1642 59.3721 55.8352 59.5646 55.5244C59.7571 55.2137 59.9934 55.0218 60.2734 54.9487C60.5534 54.8573 60.8421 54.9121 61.1396 55.1132C61.8046 55.5336 62.5309 55.8717 63.3184 56.1276C64.1059 56.3652 64.9459 56.484 65.8384 56.484C67.1509 56.484 68.1396 56.2099 68.8046 55.6615C69.4696 55.1132 69.8021 54.4277 69.8021 53.6052V53.3036C69.8021 52.8466 69.7321 52.4536 69.5921 52.1246C69.4521 51.7773 69.2159 51.4757 68.8834 51.2199C68.5509 50.964 68.1134 50.7446 67.5709 50.5618C67.0284 50.3608 66.3546 50.1688 65.5496 49.9861C64.5171 49.7667 63.6159 49.52 62.8459 49.2458C62.0934 48.9533 61.4634 48.5969 60.9559 48.1765C60.4659 47.7561 60.0984 47.2534 59.8534 46.6685C59.6084 46.0653 59.4859 45.3342 59.4859 44.4751V44.1461C59.4859 43.3967 59.6259 42.7021 59.9059 42.0624C60.2034 41.4043 60.6234 40.8377 61.1659 40.3625C61.7259 39.8872 62.4084 39.5217 63.2134 39.2658C64.0184 38.9916 64.9284 38.8545 65.9434 38.8545Z" fill="black"/>
<path fill-rule="evenodd" clip-rule="evenodd" d="M66.3108 64.1944C65.8282 64.1944 65.437 63.8032 65.437 63.3206L65.437 34.4856C65.437 34.003 65.8282 33.6118 66.3108 33.6118C66.7934 33.6118 67.1846 34.003 67.1846 34.4856L67.1846 63.3206C67.1846 63.8032 66.7934 64.1944 66.3108 64.1944Z" fill="black"/>
</g>
<defs>
<clipPath id="clip0">
<rect width="130" height="130" fill="white"/>
</clipPath>
</defs>
</svg>
