<svg width="78" height="78" viewBox="0 0 78 78" fill="none" xmlns="http://www.w3.org/2000/svg">
<path d="M44.5503 28.215H41.2103V24.665H36.8403V28.215H33.5703V32.315H36.8403V35.855H41.2103V32.315H44.5503V28.215Z" stroke="white" stroke-width="1.5" stroke-miterlimit="10" stroke-linecap="round" stroke-linejoin="round"/>
<path d="M30.7314 22.7041C26.3464 26.9618 26.2431 33.9727 30.5008 38.3577C31.796 39.6916 33.3464 40.6287 35.0009 41.167L36.5173 43.8945L38.6817 47.7802L40.9596 43.96L42.8422 40.8064C44.0362 40.2875 45.1655 39.5485 46.1468 38.5957C50.5318 34.338 50.635 27.3271 46.3773 22.9421C42.1273 18.5496 35.1164 18.4464 30.7314 22.7041Z" stroke="white" stroke-width="1.5" stroke-miterlimit="10" stroke-linecap="round" stroke-linejoin="round"/>
<path d="M56.4899 44.3953L56.5499 33.6853C56.5599 32.0953 57.6999 30.8153 59.0999 30.8253L59.6099 30.8353C61.0099 30.8453 62.1399 32.1353 62.1399 33.7153L62.0699 46.9253C62.0699 46.9653 62.0699 47.0053 62.0699 47.0453C62.0999 47.8253 61.8499 48.6053 61.3199 49.1953L51.9299 59.7253L51.8799 63.6353" stroke="white" stroke-width="1.5" stroke-linecap="round" stroke-linejoin="round"/>
<path d="M51.94 53.2255L55.2 49.7155C56.2 48.5955 56.2 46.7755 55.22 45.6555L54.86 45.2455C53.87 44.1155 52.27 44.1155 51.27 45.2255L41.88 55.7555C40.88 56.8755 41.16 57.9855 41.12 59.8155L41 63.6355" stroke="white" stroke-width="1.5" stroke-linecap="round" stroke-linejoin="round"/>
<path d="M53.2695 42.0155V36.5855C53.2695 35.2655 54.3395 34.1855 55.6695 34.1855" stroke="white" stroke-width="1.5" stroke-linecap="round" stroke-linejoin="round"/>
<path d="M20.65 44.3953L20.59 33.6853C20.58 32.0953 19.44 30.8153 18.04 30.8253L17.53 30.8353C16.13 30.8453 15 32.1353 15 33.7153L15.07 46.9253C15.07 46.9653 15.07 47.0053 15.08 47.0453C15.05 47.8253 15.3 48.6053 15.83 49.1953L25.22 59.7253L25.27 63.6353" stroke="white" stroke-width="1.5" stroke-linecap="round" stroke-linejoin="round"/>
<path d="M25.1901 53.2255L21.9301 49.7155C20.9301 48.5955 20.9201 46.7755 21.9101 45.6555L22.2701 45.2455C23.2601 44.1155 24.8601 44.1155 25.8601 45.2255L35.2501 55.7555C36.2501 56.8755 35.9701 57.9855 36.0101 59.8155L36.1201 63.6355" stroke="white" stroke-width="1.5" stroke-linecap="round" stroke-linejoin="round"/>
<path d="M23.86 42.0155V36.5855C23.86 35.2655 22.79 34.1855 21.46 34.1855" stroke="white" stroke-width="1.5" stroke-linecap="round" stroke-linejoin="round"/>
</svg>
