<svg width="78" height="78" viewBox="0 0 78 78" fill="none" xmlns="http://www.w3.org/2000/svg">
<path d="M31.6006 44.0024H37.1878" stroke="white" stroke-width="1.12773" stroke-miterlimit="10" stroke-linecap="round" stroke-linejoin="round"/>
<path d="M34.4004 46.792V41.2129" stroke="white" stroke-width="1.12773" stroke-miterlimit="10" stroke-linecap="round" stroke-linejoin="round"/>
<path d="M58.8866 14.4132L63.1777 12.085" stroke="white" stroke-width="1.12773" stroke-miterlimit="10" stroke-linecap="round" stroke-linejoin="round"/>
<path d="M59.1817 17.7964L63.6289 19.8105" stroke="white" stroke-width="1.12773" stroke-miterlimit="10" stroke-linecap="round" stroke-linejoin="round"/>
<path d="M39.5215 66.2545H29.4862C25.7758 66.2545 22.7598 63.2385 22.7598 59.5282V32.7744C22.7598 26.2867 28.0215 21.0249 34.5093 21.0249C40.997 21.0249 46.2588 26.2867 46.2588 32.7744V59.5282C46.2371 63.2385 43.2319 66.2545 39.5215 66.2545Z" stroke="white" stroke-width="1.5" stroke-miterlimit="10" stroke-linecap="round" stroke-linejoin="round"/>
<path d="M31.3848 21.4365V12.3667H37.6121V21.4365" stroke="white" stroke-width="1.5" stroke-miterlimit="10" stroke-linecap="round" stroke-linejoin="round"/>
<path d="M43.1016 14.9277H37.6445V17.9221H43.1016V14.9277Z" stroke="white" stroke-width="1.5" stroke-miterlimit="10" stroke-linecap="round" stroke-linejoin="round"/>
<path d="M54.8402 21.5453L43.1016 17.9217V14.9273L54.8402 11V21.5453Z" stroke="white" stroke-width="1.5" stroke-miterlimit="10" stroke-linecap="round" stroke-linejoin="round"/>
<path d="M22 22.0555C22 22.0555 23.1717 16.2729 31.3844 16.2729" stroke="white" stroke-width="1.5" stroke-miterlimit="10" stroke-linecap="round" stroke-linejoin="round"/>
<path d="M40.3347 36.4624H28.6611V51.5425H40.3347V36.4624Z" stroke="white" stroke-width="1.5" stroke-miterlimit="10" stroke-linecap="round" stroke-linejoin="round"/>
</svg>
