<svg width="78" height="78" viewBox="0 0 78 78" fill="none" xmlns="http://www.w3.org/2000/svg">
<path d="M36.2127 19.056C41.9327 12.756 51.6727 12.276 57.9827 17.996C64.2927 23.716 64.7627 33.4559 59.0527 39.7659C53.3327 46.0759 43.5927 46.546 37.2827 40.836C30.9727 35.106 30.4927 25.366 36.2127 19.056Z" stroke="white" stroke-width="1.5" stroke-miterlimit="10" stroke-linecap="round" stroke-linejoin="round"/>
<path d="M39.8331 36.0158C36.5631 32.1658 36.5831 26.3858 40.0631 22.5458C40.7031 21.8358 41.4131 21.2459 42.1831 20.7559" stroke="white" stroke-width="1.5" stroke-miterlimit="10" stroke-linecap="round" stroke-linejoin="round"/>
<path d="M55.4333 22.8062C58.7033 26.6562 58.6832 32.4261 55.2032 36.2761C54.5632 36.9761 53.8532 37.5762 53.0732 38.0562" stroke="white" stroke-width="1.5" stroke-miterlimit="10" stroke-linecap="round" stroke-linejoin="round"/>
<path d="M15.5126 60.7959C14.9426 61.7359 15.1026 62.9659 15.9426 63.7359L16.5626 64.2959C17.4026 65.0559 18.6526 65.0959 19.5226 64.4359" stroke="white" stroke-width="1.5" stroke-miterlimit="10" stroke-linecap="round" stroke-linejoin="round"/>
<path d="M33.4131 40.9859L35.4031 38.7959" stroke="white" stroke-width="1.5" stroke-miterlimit="10" stroke-linecap="round" stroke-linejoin="round"/>
<path d="M37.5029 44.6861L39.4829 42.4961" stroke="white" stroke-width="1.5" stroke-miterlimit="10" stroke-linecap="round" stroke-linejoin="round"/>
<path d="M37.503 44.686C38.103 45.226 38.143 46.156 37.603 46.766L21.643 64.366C21.103 64.966 20.173 65.016 19.573 64.466L19.543 64.436" stroke="white" stroke-width="1.5" stroke-miterlimit="10" stroke-linecap="round" stroke-linejoin="round"/>
<path d="M33.4131 40.9861C32.8131 40.4461 31.8831 40.486 31.3431 41.086L15.3831 58.6861C14.8331 59.2861 14.8831 60.216 15.4831 60.766L15.5131 60.7961" stroke="white" stroke-width="1.5" stroke-miterlimit="10" stroke-linecap="round" stroke-linejoin="round"/>
</svg>
