<svg width="78" height="78" viewBox="0 0 78 78" fill="none" xmlns="http://www.w3.org/2000/svg">
<path d="M23.21 32.8598H27.6899L31.1899 21.7598L34.9399 42.5898L38.1799 26.7198L40.6199 37.6898L42.46 32.8698H51.2799" stroke="white" stroke-width="1.5" stroke-miterlimit="10" stroke-linecap="round" stroke-linejoin="round"/>
<path d="M58.5 48.87H18.64C16.63 48.87 15 47.24 15 45.23V18.64C15 16.63 16.63 15 18.64 15H58.5C60.51 15 62.14 16.63 62.14 18.64V45.23C62.14 47.24 60.51 48.87 58.5 48.87Z" stroke="white" stroke-width="1.5" stroke-miterlimit="10" stroke-linecap="round" stroke-linejoin="round"/>
<path d="M19.6602 42.6602V21.2102C19.6602 20.3502 20.3502 19.6602 21.2102 19.6602H55.9202C56.7702 19.6602 57.4702 20.3502 57.4702 21.2102V42.6602C57.4702 43.5102 56.7802 44.2102 55.9202 44.2102H21.2102C20.3602 44.2102 19.6602 43.5102 19.6602 42.6602Z" stroke="white" stroke-width="1.5" stroke-miterlimit="10" stroke-linecap="round" stroke-linejoin="round"/>
<path d="M54.5003 32.8102C54.5003 33.6902 53.7903 34.4102 52.9103 34.4102C52.0303 34.4102 51.3203 33.7002 51.3203 32.8102C51.3203 31.9302 52.0303 31.2202 52.9103 31.2202C53.7903 31.2202 54.5003 31.9302 54.5003 32.8102Z" stroke="white" stroke-width="1.5" stroke-miterlimit="10" stroke-linecap="round" stroke-linejoin="round"/>
<path d="M43.1195 48.8701H34.0195V56.3901H43.1195V48.8701Z" stroke="white" stroke-width="1.5" stroke-miterlimit="10" stroke-linecap="round" stroke-linejoin="round"/>
<path d="M49.4802 62.1399H27.6502C27.2902 62.1399 26.9902 61.8399 26.9902 61.4799V57.0599C26.9902 56.6999 27.2802 56.3999 27.6502 56.3999H49.4802C49.8502 56.3999 50.1402 56.6899 50.1402 57.0599V61.4799C50.1402 61.8399 49.8502 62.1399 49.4802 62.1399Z" stroke="white" stroke-width="1.5" stroke-miterlimit="10" stroke-linecap="round" stroke-linejoin="round"/>
</svg>
