<svg width="100" height="100" viewBox="0 0 100 100" fill="none" xmlns="http://www.w3.org/2000/svg">
<path d="M36.9991 25.9211C36.9536 26.0722 34.2372 35.1069 40.4294 40.95C40.986 41.55 42.3894 42.75 43.5494 42.75C44.0294 42.62 44.3894 42.22 44.4694 41.73C44.5494 41.24 44.3194 40.75 43.8994 40.48C36.5994 35.88 39.3594 26.76 39.3894 26.67C40.0594 24.52 42.8694 17.5 50.7094 17.5C59.0494 17.5 62.2794 24.75 62.6294 26.55C63.4794 30.94 63.3194 36.91 57.7694 40.41C57.3494 40.68 57.1194 41.17 57.1994 41.66C57.2794 42.15 57.6394 42.55 58.1194 42.68C58.8554 42.68 60.506 41.48 61.2394 40.88C64.9194 37.43 66.2794 32.28 65.0794 26.06C64.6494 23.86 60.7394 15 50.7094 15C40.9194 15 37.5694 24.1 36.9994 25.92L36.9991 25.9211Z" fill="#303030"/>
<path d="M21 66C21 52.1929 32.1929 41 46 41H55C68.8071 41 80 52.1929 80 66V83C80 84.1046 79.1046 85 78 85H23C21.8954 85 21 84.1046 21 83V66Z" fill="#823939"/>
<path d="M50.5 47L48 45L44.5 61L50.5 68.5L58 61.5L54 45L50.5 47Z" fill="white"/>
<path d="M50.5 46.5L43 41L51.5 36.5L61 40L50.5 46.5Z" fill="white"/>
<path d="M50.9115 48.3994C50.6515 48.3994 50.3815 48.3194 50.1615 48.1494L40.7515 41.2484C40.2015 40.8384 40.0915 40.0484 40.5015 39.4984C40.9115 38.9484 41.7015 38.8384 42.2515 39.2484L50.9216 45.5994L59.7517 38.9684C60.3117 38.5584 61.0917 38.6884 61.5017 39.2484C61.9117 39.8084 61.7817 40.5884 61.2217 40.9984L51.6416 48.1694C51.4316 48.3194 51.1715 48.3994 50.9115 48.3994Z" fill="#303030"/>
<path d="M50.6808 70.0494C50.6708 70.0494 50.6508 70.0494 50.6408 70.0494C50.2808 70.0394 49.9508 69.8694 49.7208 69.5994L43.4208 61.9694C43.1708 61.6694 43.0808 61.2794 43.1708 60.8994L46.7708 45.0594C46.9208 44.3894 47.5908 43.9594 48.2708 44.1194C48.9408 44.2694 49.3608 44.9394 49.2108 45.6194L45.7508 60.8594L50.7608 66.9194L56.3408 61.0094L52.6708 45.6394C52.5108 44.9694 52.9208 44.2894 53.5908 44.1294C54.2608 43.9694 54.9408 44.3794 55.1008 45.0594L58.9308 61.0894C59.0308 61.4994 58.9108 61.9294 58.6208 62.2394L51.6108 69.6794C51.3508 69.9094 51.0208 70.0494 50.6808 70.0494Z" fill="#303030"/>
</svg>
