<svg width="100" height="100" viewBox="0 0 100 100" fill="none" xmlns="http://www.w3.org/2000/svg">
<path d="M50.45 91.8H22.25C20.46 91.8 19 90.34 19 88.55V28.65C19 26.86 20.46 25.4 22.25 25.4H50.45C52.24 25.4 53.7 26.86 53.7 28.65V88.55C53.7 90.34 52.24 91.8 50.45 91.8ZM22.25 27.9C21.84 27.9 21.5 28.24 21.5 28.65V88.55C21.5 88.96 21.84 89.3 22.25 89.3H50.45C50.86 89.3 51.2 88.96 51.2 88.55V28.65C51.2 28.24 50.86 27.9 50.45 27.9H22.25Z" fill="#303030"/>
<path d="M45.3803 27.9H27.3203C25.5303 27.9 24.0703 26.44 24.0703 24.65V22.28C24.0703 20.49 25.5303 19.03 27.3203 19.03H45.3803C47.1703 19.03 48.6303 20.49 48.6303 22.28V24.65C48.6303 26.44 47.1703 27.9 45.3803 27.9ZM27.3203 21.53C26.9103 21.53 26.5703 21.87 26.5703 22.28V24.65C26.5703 25.06 26.9103 25.4 27.3203 25.4H45.3803C45.7903 25.4 46.1303 25.06 46.1303 24.65V22.28C46.1303 21.87 45.7903 21.53 45.3803 21.53H27.3203Z" fill="#303030"/>
<path d="M40.2288 21.55H32.4688C30.6788 21.55 29.2188 20.09 29.2188 18.3V17.89C29.2188 16.1 30.6788 14.64 32.4688 14.64H40.2288C42.0188 14.64 43.4788 16.1 43.4788 17.89V18.3C43.4788 20.1 42.0188 21.55 40.2288 21.55ZM32.4688 17.15C32.0587 17.15 31.7188 17.49 31.7188 17.9V18.31C31.7188 18.72 32.0587 19.06 32.4688 19.06H40.2288C40.6388 19.06 40.9788 18.72 40.9788 18.31V17.9C40.9788 17.49 40.6388 17.15 40.2288 17.15H32.4688Z" fill="#303030"/>
<path d="M71.7617 91.63H54.7617C52.9717 91.63 51.5117 90.17 51.5117 88.38V58.24C51.5117 56.45 52.9717 54.99 54.7617 54.99H71.7617C73.5517 54.99 75.0117 56.45 75.0117 58.24V88.38C75.0117 90.17 73.5617 91.63 71.7617 91.63ZM54.7717 57.49C54.3617 57.49 54.0217 57.83 54.0217 58.24V88.38C54.0217 88.79 54.3617 89.13 54.7717 89.13H71.7717C72.1817 89.13 72.5217 88.79 72.5217 88.38V58.24C72.5217 57.83 72.1817 57.49 71.7717 57.49H54.7717Z" fill="#823939"/>
<path d="M67.9216 57.45H58.6016C57.3616 57.45 56.3516 56.44 56.3516 55.2V51.23C56.3516 49.99 57.3616 48.98 58.6016 48.98H67.9216C69.1616 48.98 70.1716 49.99 70.1716 51.23V55.2C70.1716 56.44 69.1616 57.45 67.9216 57.45ZM58.8616 54.95H67.6816V51.48H58.8616V54.95Z" fill="#823939"/>
<path d="M31.9314 46.74H28.4414V50.23H31.9314V46.74Z" fill="#303030"/>
<path d="M38.74 46.74H35.25V50.23H38.74V46.74Z" fill="#303030"/>
<path d="M31.9314 53.47H28.4414V56.96H31.9314V53.47Z" fill="#303030"/>
<path d="M38.74 53.47H35.25V56.96H38.74V53.47Z" fill="#303030"/>
<path d="M31.9314 59.94H28.4414V63.44H31.9314V59.94Z" fill="#303030"/>
<path d="M38.74 59.94H35.25V63.44H38.74V59.94Z" fill="#303030"/>
<path d="M31.9314 66.39H28.4414V69.88H31.9314V66.39Z" fill="#303030"/>
<path d="M38.74 66.39H35.25V69.88H38.74V66.39Z" fill="#303030"/>
<path d="M45.7205 46.74H42.2305V50.23H45.7205V46.74Z" fill="#303030"/>
<path d="M45.7205 53.47H42.2305V56.96H45.7205V53.47Z" fill="#303030"/>
<path d="M31.9314 33.44H28.4414V36.93H31.9314V33.44Z" fill="#303030"/>
<path d="M38.74 33.44H35.25V36.93H38.74V33.44Z" fill="#303030"/>
<path d="M31.9314 40.18H28.4414V43.67H31.9314V40.18Z" fill="#303030"/>
<path d="M38.74 40.18H35.25V43.67H38.74V40.18Z" fill="#303030"/>
<path d="M45.7205 33.44H42.2305V36.93H45.7205V33.44Z" fill="#303030"/>
<path d="M45.7205 40.18H42.2305V43.67H45.7205V40.18Z" fill="#303030"/>
<path d="M45.7205 59.94H42.2305V63.44H45.7205V59.94Z" fill="#303030"/>
<path d="M45.7205 66.39H42.2305V69.88H45.7205V66.39Z" fill="#303030"/>
<path d="M77.2911 91.6307H72.001V89.1307H77.2911C77.7111 89.1307 78.0611 88.7807 78.0611 88.3607V41.2407C78.0611 40.8207 77.7111 40.4707 77.2911 40.4707H65.1411C64.7211 40.4707 64.3711 40.8207 64.3711 41.2407V49H61.8711V41.2407C61.8711 39.4407 63.3411 37.9707 65.1411 37.9707H77.2911C79.0911 37.9707 80.5611 39.4407 80.5611 41.2407V88.3607C80.5611 90.1607 79.0911 91.6307 77.2911 91.6307Z" fill="#303030"/>
<rect x="51" y="55" width="24" height="37" rx="3" fill="#823939"/>
<path d="M59.89 69.94H57.5V72.32H59.89V69.94Z" fill="white"/>
<path d="M64.5384 69.94H62.1484V72.32H64.5384V69.94Z" fill="white"/>
<path d="M59.89 74.54H57.5V76.93H59.89V74.54Z" fill="white"/>
<path d="M64.5384 74.54H62.1484V76.93H64.5384V74.54Z" fill="white"/>
<path d="M59.89 78.96H57.5V81.34H59.89V78.96Z" fill="white"/>
<path d="M64.5384 78.96H62.1484V81.34H64.5384V78.96Z" fill="white"/>
<path d="M59.89 83.37H57.5V85.76H59.89V83.37Z" fill="white"/>
<path d="M64.5384 83.37H62.1484V85.76H64.5384V83.37Z" fill="white"/>
<path d="M69.3119 69.94H66.9219V72.32H69.3119V69.94Z" fill="white"/>
<path d="M69.3119 74.54H66.9219V76.93H69.3119V74.54Z" fill="white"/>
<path d="M59.89 60.86H57.5V63.25H59.89V60.86Z" fill="white"/>
<path d="M64.5384 60.86H62.1484V63.25H64.5384V60.86Z" fill="white"/>
<path d="M59.89 65.46H57.5V67.85H59.89V65.46Z" fill="white"/>
<path d="M64.5384 65.46H62.1484V67.85H64.5384V65.46Z" fill="white"/>
<path d="M69.3119 60.86H66.9219V63.25H69.3119V60.86Z" fill="white"/>
<path d="M69.3119 65.46H66.9219V67.85H69.3119V65.46Z" fill="white"/>
<path d="M69.3119 78.96H66.9219V81.34H69.3119V78.96Z" fill="white"/>
<path d="M69.3119 83.37H66.9219V85.76H69.3119V83.37Z" fill="white"/>
<path d="M42.4008 91.72H30.3008V74.43H42.4008V91.72ZM32.8008 89.22H39.9008V76.93H32.8008V89.22Z" fill="#303030"/>
<path d="M71.2188 39.5C70.5288 39.5 69.9688 38.94 69.9688 38.25V32.14C69.9688 31.45 70.5288 30.89 71.2188 30.89C71.9088 30.89 72.4688 31.45 72.4688 32.14V38.25C72.4688 38.94 71.9088 39.5 71.2188 39.5Z" fill="#303030"/>
<path d="M36.9883 15.61C36.2983 15.61 35.7383 15.05 35.7383 14.36V8.25C35.7383 7.56 36.2983 7 36.9883 7C37.6783 7 38.2383 7.56 38.2383 8.25V14.36C38.2383 15.05 37.6783 15.61 36.9883 15.61Z" fill="#303030"/>
</svg>
