<svg width="100" height="100" viewBox="0 0 100 100" fill="none" xmlns="http://www.w3.org/2000/svg">
<circle cx="50" cy="49.9991" r="22" fill="#823939"/>
<rect x="39" y="68.9991" width="22" height="4" fill="white"/>
<path d="M58.6805 74.47H41.2305C39.4405 74.47 37.9805 73.01 37.9805 71.22V70.73C37.9805 68.94 39.4405 67.48 41.2305 67.48H58.6805C60.4705 67.48 61.9305 68.94 61.9305 70.73V71.22C61.9305 73.01 60.4705 74.47 58.6805 74.47ZM41.2305 69.98C40.8205 69.98 40.4805 70.32 40.4805 70.73V71.22C40.4805 71.63 40.8205 71.97 41.2305 71.97H58.6805C59.0905 71.97 59.4305 71.63 59.4305 71.22V70.73C59.4305 70.32 59.0905 69.98 58.6805 69.98H41.2305Z" fill="#303030"/>
<path d="M58.6805 78.97H41.2305C39.4405 78.97 37.9805 77.51 37.9805 75.72V75.23C37.9805 73.44 39.4405 71.98 41.2305 71.98H58.6805C60.4705 71.98 61.9305 73.44 61.9305 75.23V75.72C61.9305 77.51 60.4705 78.97 58.6805 78.97ZM41.2305 74.47C40.8205 74.47 40.4805 74.81 40.4805 75.22V75.71C40.4805 76.12 40.8205 76.46 41.2305 76.46H58.6805C59.0905 76.46 59.4305 76.12 59.4305 75.71V75.22C59.4305 74.81 59.0905 74.47 58.6805 74.47H41.2305Z" fill="#303030"/>
<path d="M58.6805 83.46H41.2305C39.4405 83.46 37.9805 82 37.9805 80.21V79.72C37.9805 77.93 39.4405 76.47 41.2305 76.47H58.6805C60.4705 76.47 61.9305 77.93 61.9305 79.72V80.21C61.9305 82 60.4705 83.46 58.6805 83.46ZM41.2305 78.97C40.8205 78.97 40.4805 79.31 40.4805 79.72V80.21C40.4805 80.62 40.8205 80.96 41.2305 80.96H58.6805C59.0905 80.96 59.4305 80.62 59.4305 80.21V79.72C59.4305 79.31 59.0905 78.97 58.6805 78.97H41.2305Z" fill="#303030"/>
<path d="M49.9492 23.1C49.2592 23.1 48.6992 22.54 48.6992 21.85V12.25C48.6992 11.56 49.2592 11 49.9492 11C50.6392 11 51.1992 11.56 51.1992 12.25V21.85C51.1992 22.54 50.6392 23.1 49.9492 23.1Z" fill="#303030"/>
<path d="M64.1819 26.97C63.9719 26.97 63.7519 26.92 63.5519 26.8C62.9519 26.45 62.7519 25.69 63.1019 25.09L67.9219 16.78C68.2719 16.18 69.0319 15.98 69.6319 16.33C70.2319 16.68 70.4319 17.44 70.0819 18.04L65.2619 26.35C65.0319 26.75 64.6119 26.97 64.1819 26.97Z" fill="#303030"/>
<path d="M35.8514 26.89C35.4314 26.89 35.0214 26.68 34.7914 26.3L29.7114 18.15C29.3514 17.56 29.5214 16.79 30.1114 16.43C30.6914 16.06 31.4714 16.24 31.8314 16.83L36.9114 24.98C37.2714 25.57 37.1014 26.34 36.5114 26.7C36.3114 26.83 36.0814 26.89 35.8514 26.89Z" fill="#303030"/>
<path d="M25.7282 37.19C25.4482 37.19 25.1582 37.09 24.9282 36.9L17.5582 30.74C17.0282 30.3 16.9582 29.51 17.3982 28.98C17.8382 28.45 18.6282 28.38 19.1582 28.82L26.5282 34.98C27.0582 35.42 27.1282 36.21 26.6882 36.74C26.4382 37.04 26.0782 37.19 25.7282 37.19Z" fill="#303030"/>
<path d="M21.8501 49.46C21.8401 49.46 21.8301 49.46 21.8301 49.46L12.2301 49.29C11.5401 49.28 10.9901 48.71 11.0001 48.02C11.0101 47.33 11.6001 46.79 12.2701 46.79L21.8701 46.96C22.5601 46.97 23.1101 47.54 23.1001 48.23C23.0901 48.91 22.5301 49.46 21.8501 49.46Z" fill="#303030"/>
<path d="M78.0508 49.41C77.3608 49.41 76.8008 48.86 76.8008 48.17C76.8008 47.48 77.3508 46.92 78.0408 46.91L87.6508 46.84H87.6608C88.3508 46.84 88.9108 47.39 88.9108 48.08C88.9108 48.77 88.3608 49.33 87.6708 49.34L78.0508 49.41C78.0608 49.41 78.0608 49.41 78.0508 49.41Z" fill="#303030"/>
<path d="M85.1283 67.45C84.9283 67.45 84.7283 67.4 84.5383 67.3L76.0783 62.74C75.4683 62.41 75.2483 61.65 75.5683 61.05C75.8983 60.44 76.6583 60.21 77.2583 60.54L85.7183 65.1C86.3283 65.43 86.5483 66.19 86.2283 66.79C85.9983 67.21 85.5683 67.45 85.1283 67.45Z" fill="#303030"/>
<path d="M14.7821 67.45C14.3421 67.45 13.9021 67.21 13.6821 66.79C13.3521 66.18 13.5821 65.42 14.1921 65.1L22.6521 60.54C23.2621 60.21 24.0221 60.44 24.3421 61.05C24.6721 61.66 24.4421 62.42 23.8321 62.74L15.3721 67.3C15.1821 67.4 14.9821 67.45 14.7821 67.45Z" fill="#303030"/>
<path d="M73.6799 36.46C73.2399 36.46 72.82 36.23 72.59 35.82C72.25 35.22 72.4699 34.46 73.0699 34.12L81.4499 29.43C82.0499 29.09 82.81 29.31 83.15 29.91C83.49 30.51 83.27 31.27 82.67 31.61L74.29 36.3C74.09 36.41 73.8799 36.46 73.6799 36.46Z" fill="#303030"/>
<path d="M49.9508 88.78C46.8308 88.78 44.3008 86.24 44.3008 83.13H46.8008C46.8008 84.87 48.2108 86.28 49.9508 86.28C51.6908 86.28 53.1008 84.86 53.1008 83.13H55.6008C55.6108 86.24 53.0708 88.78 49.9508 88.78Z" fill="#303030"/>
</svg>
