<svg width="100" height="100" viewBox="0 0 100 100" fill="none" xmlns="http://www.w3.org/2000/svg">
<path d="M66.127 76.07H33.457V73.57H64.877L65.5271 72.7201L81.8271 55.5C82.4571 54.82 82.787 53.92 82.657 53.19C82.577 52.73 82.317 52.4 81.877 52.19C80.557 51.53 78.397 51.9 77.437 52.95L64.6971 65.4701L62.9471 63.69L75.6471 51.21C77.3071 49.41 80.687 48.81 82.987 49.95C84.137 50.52 84.897 51.51 85.117 52.75C85.387 54.25 84.8271 55.96 83.6471 57.22L67.3871 74.39L66.127 76.07Z" fill="#303030"/>
<path d="M61.8501 66.34H45.7401V63.84H61.8501C63.2501 63.84 64.3902 62.7 64.3902 61.29C64.3902 59.88 63.2501 58.74 61.8501 58.74C60.6201 58.74 59.3401 58.79 58.1001 58.84C55.1101 58.96 52.0202 59.09 48.9802 58.54C46.9102 58.17 45.3202 57.06 43.9202 56.07C42.1802 54.85 40.8202 53.89 38.8502 54.24C35.3002 54.87 32.9902 56.81 30.3202 59.06C28.9202 60.24 27.4702 61.46 25.7502 62.55L24.4102 60.44C25.9902 59.44 27.3701 58.28 28.7101 57.15C31.4101 54.87 34.2102 52.52 38.4202 51.78C41.4102 51.25 43.5101 52.73 45.3601 54.03C46.6701 54.94 47.9002 55.81 49.4202 56.08C52.1902 56.57 55.1402 56.45 58.0002 56.34C59.2602 56.29 60.5701 56.24 61.8501 56.24C64.6301 56.24 66.9002 58.5 66.9002 61.29C66.9002 64.08 64.6301 66.34 61.8501 66.34Z" fill="#303030"/>
<path d="M29.0484 84.08C27.9684 84.08 26.9184 83.55 26.2984 82.58L15.5084 65.62C15.0484 64.89 14.8884 64.02 15.0784 63.17C15.2684 62.32 15.7784 61.6 16.5084 61.13L20.5484 58.56C22.0584 57.6 24.0684 58.05 25.0384 59.56L35.8284 76.52C36.2884 77.25 36.4484 78.12 36.2584 78.97C36.0684 79.82 35.5584 80.54 34.8284 81.01L30.7884 83.58C30.2484 83.91 29.6484 84.08 29.0484 84.08ZM22.2884 60.55C22.1484 60.55 22.0184 60.59 21.8884 60.66L17.8484 63.23C17.6784 63.34 17.5684 63.5 17.5184 63.7C17.4784 63.9 17.5084 64.1 17.6184 64.26L28.4084 81.22C28.6284 81.56 29.0984 81.67 29.4484 81.45L33.4884 78.88C33.6584 78.77 33.7684 78.61 33.8184 78.41C33.8584 78.21 33.8284 78.01 33.7184 77.84L22.9284 60.88C22.7884 60.67 22.5384 60.55 22.2884 60.55Z" fill="#303030"/>
<circle cx="59.5" cy="35.5" r="19.5" fill="#823939"/>
<path d="M58.5484 48.47V45.4C56.7884 45.37 54.9684 44.82 53.8984 44.06L54.6284 42.02C55.7184 42.75 57.2984 43.33 58.9984 43.33C61.1584 43.33 62.6184 42.08 62.6184 40.35C62.6184 38.68 61.4384 37.65 59.1884 36.73C56.0884 35.52 54.1784 34.12 54.1784 31.48C54.1784 28.96 55.9685 27.04 58.7685 26.59V23.52H60.6485V26.47C62.4685 26.53 63.7184 27.02 64.5984 27.53L63.8385 29.54C63.1985 29.17 61.9585 28.51 60.0085 28.51C57.6685 28.51 56.7885 29.91 56.7885 31.12C56.7885 32.7 57.9084 33.49 60.5584 34.58C63.6884 35.86 65.2685 37.44 65.2685 40.14C65.2685 42.54 63.5984 44.79 60.4684 45.3V48.46H58.5484V48.47Z" fill="white"/>
</svg>
