<svg width="100" height="100" viewBox="0 0 100 100" fill="none" xmlns="http://www.w3.org/2000/svg">
<path d="M15 21H85V63C85 64.6569 83.6569 66 82 66H18C16.3431 66 15 64.6569 15 63V21Z" fill="#823939"/>
<path d="M35.8188 49.1702C35.8188 50.7202 34.5588 51.9702 33.0188 51.9702C31.4688 51.9702 30.2188 50.7102 30.2188 49.1702C30.2188 47.6202 31.4788 46.3702 33.0188 46.3702C34.5588 46.3702 35.8188 47.6202 35.8188 49.1702Z" fill="white"/>
<path d="M46.0805 37.0202C46.0805 38.5702 44.8205 39.8202 43.2805 39.8202C41.7305 39.8202 40.4805 38.5602 40.4805 37.0202C40.4805 35.4702 41.7405 34.2202 43.2805 34.2202C44.8205 34.2102 46.0805 35.4702 46.0805 37.0202Z" fill="white"/>
<path d="M57.3969 44.6102C57.3969 46.1602 56.1369 47.4102 54.5969 47.4102C53.0469 47.4102 51.7969 46.1502 51.7969 44.6102C51.7969 43.0602 53.0569 41.8102 54.5969 41.8102C56.1469 41.8102 57.3969 43.0602 57.3969 44.6102Z" fill="white"/>
<path d="M68.7289 33.7902C68.7289 35.3402 67.4689 36.5902 65.9289 36.5902C64.3789 36.5902 63.1289 35.3402 63.1289 33.7902C63.1289 32.2402 64.3889 30.9902 65.9289 30.9902C67.4789 30.9902 68.7289 32.2402 68.7289 33.7902Z" fill="white"/>
<path d="M33.9686 49.9802L32.0586 48.3602L43.0386 35.3502L54.4586 43.0102L65.0686 32.8902L66.7886 34.7002L54.7386 46.2102L43.4986 38.6802L33.9686 49.9802Z" fill="white"/>
<path d="M80.75 66.6H19.25C16.91 66.6 15 64.69 15 62.35V16.25C15 13.91 16.91 12 19.25 12H80.75C83.09 12 85 13.91 85 16.25V62.35C85 64.69 83.1 66.6 80.75 66.6ZM19.25 14.5C18.29 14.5 17.5 15.29 17.5 16.25V62.35C17.5 63.31 18.29 64.1 19.25 64.1H80.75C81.71 64.1 82.5 63.31 82.5 62.35V16.25C82.5 15.29 81.71 14.5 80.75 14.5H19.25Z" fill="#303030"/>
<path d="M51.25 65.73H48.75V76.74H51.25V65.73Z" fill="#303030"/>
<path d="M49.9991 88.18C46.4391 88.18 43.5391 85.28 43.5391 81.72C43.5391 78.16 46.4391 75.26 49.9991 75.26C53.5591 75.26 56.4591 78.16 56.4591 81.72C56.4591 85.28 53.5691 88.18 49.9991 88.18ZM49.9991 77.76C47.8191 77.76 46.0391 79.53 46.0391 81.72C46.0391 83.9 47.8091 85.68 49.9991 85.68C52.1891 85.68 53.9591 83.91 53.9591 81.72C53.9591 79.54 52.1891 77.76 49.9991 77.76Z" fill="#303030"/>
</svg>
