<svg width="100" height="100" viewBox="0 0 100 100" fill="none" xmlns="http://www.w3.org/2000/svg">
<path d="M53.7188 32.85C53.5588 32.85 53.3988 32.82 53.2388 32.75C52.7688 32.56 52.4688 32.1 52.4688 31.6V23.82C52.4688 23.49 52.5988 23.17 52.8388 22.94L59.6488 16.13C59.9488 15.83 60.3888 15.7 60.8088 15.79C62.8888 16.26 64.9288 16.95 66.8688 17.82C67.2388 17.99 67.5088 18.33 67.5788 18.73C67.6488 19.13 67.5188 19.55 67.2288 19.84L54.5888 32.48C54.3588 32.73 54.0488 32.85 53.7188 32.85ZM54.9688 24.35V28.59L64.1488 19.41C63.0888 19.01 62.0188 18.67 60.9188 18.4L54.9688 24.35Z" fill="#303030"/>
<path d="M53.7188 25.08C53.5588 25.08 53.3988 25.05 53.2388 24.98C52.7688 24.79 52.4688 24.33 52.4688 23.83V16.25C52.4688 15.56 53.0288 15 53.7188 15C56.0787 15 58.4688 15.27 60.8088 15.8C61.2488 15.9 61.6088 16.23 61.7388 16.67C61.8688 17.11 61.7388 17.58 61.4188 17.9L54.6088 24.71C54.3588 24.95 54.0488 25.08 53.7188 25.08ZM54.9688 17.53V20.81L57.9688 17.81C56.9688 17.66 55.9688 17.57 54.9688 17.53Z" fill="#303030"/>
<path d="M54.1788 48.23H53.7188C53.0288 48.23 52.4688 47.67 52.4688 46.98V39.66C52.4688 39.33 52.5988 39.01 52.8388 38.78L70.5888 21.03C71.0188 20.6 71.6988 20.54 72.1988 20.89C73.7688 22 75.2388 23.26 76.5688 24.61C77.0488 25.1 77.0388 25.88 76.5588 26.37L55.0688 47.86C54.8188 48.09 54.5088 48.23 54.1788 48.23ZM54.9688 40.17V44.41L73.8888 25.49C73.1588 24.81 72.3888 24.16 71.5888 23.54L54.9688 40.17Z" fill="#303030"/>
<path d="M53.7188 40.9C53.5588 40.9 53.3988 40.87 53.2388 40.8C52.7688 40.61 52.4688 40.15 52.4688 39.65V31.6C52.4688 31.27 52.5988 30.95 52.8388 30.72L65.4788 18.08C65.8488 17.71 66.4088 17.61 66.8788 17.83C68.7488 18.67 70.5388 19.7 72.1988 20.88C72.4988 21.09 72.6887 21.43 72.7188 21.79C72.7488 22.16 72.6188 22.52 72.3588 22.78L54.6088 40.53C54.3588 40.77 54.0488 40.9 53.7188 40.9ZM54.9688 32.12V36.63L69.5088 22.09C68.5788 21.5 67.6088 20.96 66.6188 20.47L54.9688 32.12Z" fill="#303030"/>
<path d="M76.8793 48.23H69.2193C68.7093 48.23 68.2593 47.93 68.0593 47.46C67.8693 46.99 67.9693 46.46 68.3293 46.1L80.8793 33.55C81.1693 33.26 81.5793 33.13 81.9893 33.2C82.3893 33.27 82.7393 33.54 82.8993 33.92C83.7593 35.83 84.4293 37.85 84.8993 39.9C84.9993 40.32 84.8693 40.76 84.5593 41.06L77.7593 47.86C77.5293 48.09 77.2093 48.23 76.8793 48.23ZM72.2293 45.73H76.3593L82.2993 39.79C82.0293 38.72 81.6993 37.67 81.3193 36.64L72.2293 45.73Z" fill="#303030"/>
<path d="M84.4495 48.23H76.8795C76.3695 48.23 75.9194 47.93 75.7194 47.46C75.5294 46.99 75.6295 46.46 75.9895 46.1L82.7894 39.3C83.1094 38.98 83.5895 38.86 84.0195 38.98C84.4595 39.11 84.7895 39.46 84.8895 39.91C85.4195 42.25 85.6795 44.63 85.6795 46.99C85.6995 47.67 85.1395 48.23 84.4495 48.23ZM79.8995 45.73H83.1695C83.1295 44.73 83.0295 43.74 82.8895 42.74L79.8995 45.73Z" fill="#303030"/>
<path d="M69.2199 48.23H61.8599C61.3499 48.23 60.8999 47.93 60.6999 47.46C60.5099 46.99 60.6099 46.46 60.9699 46.1L78.2499 28.83C78.5099 28.57 78.8699 28.44 79.2499 28.47C79.6199 28.51 79.9599 28.7 80.1699 29.01C81.2199 30.55 82.1399 32.2 82.9099 33.93C83.1199 34.4 83.0199 34.96 82.6499 35.33L70.0999 47.88C69.8699 48.09 69.5499 48.23 69.2199 48.23ZM64.8699 45.73H68.6899L80.2499 34.16C79.8399 33.31 79.3899 32.48 78.9099 31.68L64.8699 45.73Z" fill="#303030"/>
<path d="M61.8602 48.23H54.1802C53.6702 48.23 53.2202 47.93 53.0202 47.46C52.8302 46.99 52.9302 46.46 53.2902 46.1L74.7802 24.61C75.0102 24.38 75.3302 24.24 75.6602 24.24C75.6602 24.24 75.6602 24.24 75.6702 24.24C76.0002 24.24 76.3202 24.38 76.5602 24.62C77.9002 25.98 79.1102 27.46 80.1602 29.01C80.5002 29.51 80.4402 30.17 80.0102 30.6L62.7302 47.87C62.5102 48.09 62.1902 48.23 61.8602 48.23ZM57.1902 45.73H61.3402L77.5002 29.57C76.9202 28.78 76.3002 28.02 75.6402 27.28L57.1902 45.73Z" fill="#303030"/>
<path fill-rule="evenodd" clip-rule="evenodd" d="M48 85C65.6731 85 80 70.6731 80 53H48V21C30.3269 21 16 35.3269 16 53C16 70.6731 30.3269 85 48 85Z" fill="#823939"/>
</svg>
