<svg width="75" height="75" viewBox="0 0 75 75" fill="none" xmlns="http://www.w3.org/2000/svg">
<path d="M54.8095 43.3582C54.6016 43.3582 54.4018 43.2783 54.2419 43.1264L40.5073 29.3849C40.1955 29.0731 40.1955 28.5695 40.5073 28.2577C40.8191 27.946 41.3227 27.946 41.6345 28.2577L55.3691 41.9993C55.6809 42.3111 55.6809 42.8146 55.3691 43.1264C55.2172 43.2863 55.0094 43.3582 54.8095 43.3582Z" fill="white"/>
<path d="M19.434 46.6685C19.2261 46.6685 19.0263 46.5886 18.8664 46.4367L17.939 45.5174C14.1656 42.12 12.3668 39.3861 12.3028 36.9319C12.2628 35.525 12.8145 34.246 13.9337 33.1269L24.4306 21.5597C28.3559 17.6267 32.2173 20.6244 35.0314 22.8067L35.3352 23.0385C35.6869 23.3103 35.7509 23.814 35.4791 24.1577C35.2073 24.5094 34.7036 24.5734 34.3598 24.3016L34.056 24.0618C30.8022 21.5357 28.284 19.9529 25.5898 22.6468L15.093 34.214C14.2615 35.0454 13.8857 35.9087 13.9097 36.868C13.9577 38.8185 15.6445 41.2646 19.0502 44.3343L20.0016 45.2856C20.3134 45.5973 20.3134 46.101 20.0016 46.4127C19.8417 46.5886 19.6339 46.6685 19.434 46.6685Z" fill="white"/>
<path d="M56.1913 53.2224C55.192 53.2224 54.2006 52.7587 53.2733 51.8394L49.228 47.7945C48.9162 47.4828 48.9162 46.9791 49.228 46.6674C49.5398 46.3556 50.0435 46.3556 50.3552 46.6674L54.4005 50.7123C55.176 51.4877 56.3912 52.3191 58.0541 50.6643C58.7496 49.9689 59.9088 48.8097 56.9428 45.844L54.0648 42.9662C53.753 42.6544 53.753 42.1508 54.0648 41.839C54.3765 41.5273 54.8802 41.5273 55.192 41.839L58.07 44.7169C60.8282 47.4748 61.1879 49.785 59.1813 51.7915C58.2299 52.7427 57.2146 53.2224 56.1913 53.2224Z" fill="white"/>
<path d="M51.3553 58.0599C50.356 58.0599 49.3646 57.5963 48.4373 56.677L44.392 52.6321C44.0803 52.3203 44.0803 51.8167 44.392 51.5049C44.7038 51.1932 45.2075 51.1932 45.5193 51.5049L49.5645 55.5498C50.34 56.3173 51.5551 57.1566 53.218 55.4939C53.9135 54.7984 55.0727 53.6393 52.1067 50.6736L49.2287 47.7958C48.9169 47.484 48.9169 46.9804 49.2287 46.6686C49.5405 46.3569 50.0442 46.3569 50.356 46.6686L53.2339 49.5464C56.024 52.3363 56.3838 54.5906 54.3452 56.621C53.4018 57.5803 52.3786 58.0599 51.3553 58.0599Z" fill="white"/>
<path d="M46.5112 62.8845C45.4959 62.8845 44.5206 62.4209 43.6092 61.5096L39.5639 57.4647C39.2521 57.1529 39.2521 56.6493 39.5639 56.3375C39.8757 56.0258 40.3793 56.0258 40.6911 56.3375L44.7364 60.3825C45.3839 61.03 46.0315 61.3417 46.6551 61.2858C47.2147 61.2378 47.7983 60.918 48.3819 60.3345C49.0774 59.639 50.2367 58.4799 47.2707 55.5141L44.3926 52.6364C44.0808 52.3246 44.0808 51.821 44.3926 51.5092C44.7044 51.1974 45.2081 51.1974 45.5199 51.5092L48.3979 54.387C51.188 57.1769 51.5398 59.4312 49.5092 61.4616C48.6458 62.325 47.7343 62.7966 46.783 62.8766C46.703 62.8846 46.6071 62.8845 46.5112 62.8845Z" fill="white"/>
<path d="M41.675 67.7249C40.6597 67.7249 39.6844 67.2613 38.773 66.35L36.0229 63.6001C35.7111 63.2883 35.7111 62.7847 36.0229 62.4729C36.3347 62.1612 36.8383 62.1612 37.1501 62.4729L39.9002 65.2228C40.5478 65.8703 41.1954 66.1741 41.8189 66.1262C42.3786 66.0782 42.9621 65.7584 43.5457 65.1749C44.1533 64.5673 44.4012 64.0318 44.3532 63.4322C44.2892 62.6008 43.6417 61.5696 42.4345 60.3626L39.5565 57.4847C39.2447 57.173 39.2447 56.6694 39.5565 56.3576C39.8683 56.0458 40.3719 56.0458 40.6837 56.3576L43.5617 59.2354C45.0647 60.7383 45.8482 62.0732 45.9441 63.3043C46.032 64.3835 45.6164 65.3667 44.673 66.31C43.8096 67.1733 42.8982 67.645 41.9468 67.7249C41.8669 67.7169 41.771 67.7249 41.675 67.7249Z" fill="white"/>
<path d="M57.0471 45.6138C56.8392 45.6138 56.6393 45.5338 56.4794 45.3819C56.1676 45.0702 56.1676 44.5666 56.4794 44.2548L58.8618 41.8726C60.4528 40.2818 61.4361 38.6271 61.6919 37.0923C61.9717 35.4455 61.4281 33.9267 60.077 32.5757L49.4282 22.0158C48.245 20.8327 46.6701 20.2011 44.8873 20.2011C44.8793 20.2011 44.8713 20.2011 44.8634 20.2011C41.9693 20.2091 38.7635 21.8399 35.8455 24.7897L29.9775 31.1528C29.6817 31.4805 29.17 31.4965 28.8502 31.2008C28.5225 30.905 28.5065 30.3934 28.8023 30.0736L34.6943 23.6945C37.9321 20.417 41.5376 18.6183 44.8634 18.6104C44.8713 18.6104 44.8793 18.6104 44.8873 18.6104C47.1098 18.6104 49.0685 19.3938 50.5555 20.8886L61.2042 31.4486C62.9231 33.1673 63.6345 35.2057 63.2668 37.3641C62.947 39.2346 61.8118 41.1851 59.989 43.0077L57.6067 45.3899C57.4628 45.5338 57.2549 45.6138 57.0471 45.6138Z" fill="white"/>
<path d="M30.6998 38.2425C29.7804 38.2425 28.9091 37.8428 28.0616 37.0514C27.1742 36.22 26.6626 35.3167 26.5427 34.3654C26.4068 33.2383 26.8225 32.1511 27.7898 31.1199L31.6991 26.9471C32.0029 26.6273 32.5066 26.6113 32.8264 26.9071C33.1462 27.2109 33.1622 27.7145 32.8664 28.0343L28.957 32.2071C28.3334 32.8706 28.0537 33.5341 28.1336 34.1656C28.2215 34.869 28.7412 35.4926 29.1569 35.8843C29.8604 36.5478 31.0436 37.6509 33.9056 34.5973L40.5252 28.2501C40.8449 27.9463 41.3486 27.9543 41.6524 28.2741C41.9562 28.5938 41.9482 29.0974 41.6284 29.4012L35.0409 35.7164C33.4579 37.4031 32.0269 38.2425 30.6998 38.2425Z" fill="white"/>
<path d="M20.9532 53.6966C19.9539 53.6966 18.8507 53.4568 18.0432 52.6175C16.2045 50.7069 17.4995 47.5173 17.5555 47.3814C17.5955 47.2855 17.6515 47.1976 17.7314 47.1256L19.786 45.0712C21.5848 43.2726 23.1197 42.2573 24.5027 41.9536C25.7819 41.6738 26.9091 42.0175 27.8605 42.9608C28.7239 43.8241 29.1396 44.8874 29.0676 46.0225C28.9877 47.2296 28.3561 48.4366 27.1889 49.6038L23.7033 53.0891C23.6233 53.1691 23.5194 53.233 23.4075 53.273C23.3196 53.3129 22.2243 53.6966 20.9532 53.6966ZM18.9786 48.1329C18.8027 48.6525 18.2511 50.5311 19.1944 51.5063C20.1378 52.4896 22.1284 51.994 22.696 51.8181L26.0457 48.4686C26.9171 47.5973 27.4048 46.718 27.4607 45.9106C27.5087 45.2391 27.2609 44.6235 26.7252 44.088C26.1656 43.5284 25.582 43.3445 24.8386 43.5124C23.7833 43.7442 22.4642 44.6475 20.9132 46.1984L18.9786 48.1329Z" fill="white"/>
<path d="M25.3255 58.213C24.4062 58.213 23.3909 57.9891 22.6394 57.2137C20.9445 55.4551 22.1357 52.5293 22.1837 52.4094C22.2237 52.3134 22.2796 52.2255 22.3595 52.1536L24.2143 50.299C25.8452 48.6682 27.2362 47.7569 28.4754 47.5091C29.6186 47.2773 30.6499 47.605 31.5213 48.4844C33.2401 50.2031 33.0403 52.4573 30.9936 54.5038L27.8518 57.6454C27.7718 57.7253 27.6679 57.7893 27.556 57.8292C27.484 57.8612 26.4847 58.213 25.3255 58.213ZM23.6147 53.1608C23.4548 53.6404 22.9831 55.2712 23.7906 56.1106C24.5341 56.886 26.149 56.5982 26.8525 56.3823L29.8664 53.3766C31.2895 51.9537 31.4653 50.6907 30.3941 49.6195C29.8904 49.1159 29.4107 48.956 28.7951 49.0839C27.8918 49.2678 26.7246 50.0592 25.3495 51.4421L23.6147 53.1608Z" fill="white"/>
<path d="M29.2566 62.2872C28.4092 62.2872 27.4738 62.0874 26.7863 61.3679C25.2274 59.7452 26.3146 57.0672 26.3626 56.9553C26.4025 56.8594 26.4585 56.7714 26.5385 56.6995L28.2093 55.0288C29.9601 53.2781 32.5504 51.2077 34.8208 53.478C35.5803 54.2374 37.0593 56.2918 34.4291 58.9298L31.599 61.7597C31.519 61.8396 31.4151 61.9035 31.3032 61.9435C31.2312 61.9595 30.3199 62.2872 29.2566 62.2872ZM27.7936 57.6987C27.6497 58.1384 27.2499 59.5373 27.9455 60.2568C28.585 60.9203 29.9761 60.6725 30.5997 60.4886L33.3018 57.7947C34.9007 56.1879 34.2932 55.2046 33.6936 54.6051C33.2059 54.1175 32.2945 53.2062 29.3445 56.1559L27.7936 57.6987Z" fill="white"/>
<path d="M32.4881 65.716C31.7526 65.716 30.9292 65.5321 30.3136 64.8926C28.9386 63.4697 29.8899 61.1355 29.9299 61.0395C29.9699 60.9436 30.0258 60.8557 30.1058 60.7838L31.5128 59.3768C33.8632 57.0266 35.5981 56.6589 37.133 58.1937C37.8046 58.8572 38.1403 59.5367 38.1643 60.2721C38.1963 61.1275 37.7806 61.9908 36.9331 62.8382L34.5427 65.2284C34.4628 65.3083 34.3589 65.3722 34.2469 65.4122C34.119 65.4602 33.3675 65.716 32.4881 65.716ZM31.3609 61.783C31.201 62.2546 30.9932 63.2859 31.4729 63.7815C31.9605 64.2931 33.0718 64.0852 33.5594 63.9493L35.8139 61.6951C36.3335 61.1754 36.5894 60.7118 36.5814 60.3201C36.5734 60.0083 36.3815 59.6806 36.0138 59.3129C35.5261 58.8252 34.9265 58.2177 32.648 60.488L31.3609 61.783Z" fill="white"/>
<path d="M64.5148 36.1457C64.2989 36.1457 64.099 36.0578 63.9471 35.9139L45.9194 17.8876C45.6076 17.5758 45.6076 17.0722 45.9194 16.7605L54.4975 8.17498C54.8093 7.86322 55.313 7.86322 55.6248 8.17498L73.6525 26.2013C73.8044 26.3532 73.8844 26.553 73.8844 26.7688C73.8844 26.9847 73.7964 27.1845 73.6525 27.3364L65.0663 35.9219C64.9304 36.0658 64.7226 36.1457 64.5148 36.1457ZM47.6142 17.32L64.5068 34.2192L71.9577 26.7688L55.0572 9.87769L47.6142 17.32Z" fill="white"/>
<path d="M11.0305 38.2416C10.8307 38.2416 10.6388 38.1696 10.4869 38.0337L1.14125 29.4642C0.813474 29.1685 0.797487 28.6568 1.09329 28.3371L18.3296 9.55136C18.6254 9.22361 19.137 9.19963 19.4568 9.5034L28.8024 18.0729C28.9623 18.2168 29.0503 18.4166 29.0583 18.6245C29.0663 18.8323 28.9943 19.0402 28.8504 19.2L11.6141 37.9858C11.4702 38.1456 11.2703 38.2336 11.0625 38.2416C11.0545 38.2336 11.0385 38.2416 11.0305 38.2416ZM2.82009 28.8167L10.9826 36.307L27.1396 18.6964L18.9771 11.2061L2.82009 28.8167Z" fill="white"/>
</svg>
