<svg width="75" height="75" viewBox="0 0 75 75" fill="none" xmlns="http://www.w3.org/2000/svg">
<path d="M59.4807 68.951H16.0258C14.4894 68.951 13.2363 67.6979 13.2363 66.1616V16.5785C13.2363 15.0422 14.4894 13.7891 16.0258 13.7891H59.4807C61.017 13.7891 62.2701 15.0422 62.2701 16.5785V66.1616C62.2701 67.6979 61.017 68.951 59.4807 68.951ZM16.0258 15.9348C15.6739 15.9348 15.382 16.2266 15.382 16.5785V66.1616C15.382 66.5135 15.6739 66.8053 16.0258 66.8053H59.4807C59.8326 66.8053 60.1244 66.5135 60.1244 66.1616V16.5785C60.1244 16.2266 59.8326 15.9348 59.4807 15.9348H16.0258Z" fill="white"/>
<path d="M43.8363 14.6922C43.2441 14.6922 42.7635 14.2115 42.7635 13.6193V12.452C42.7635 9.68833 40.5148 7.43966 37.7511 7.43966C34.9874 7.43966 32.7473 9.68833 32.7473 12.452V13.6193C32.7473 14.2115 32.2666 14.6922 31.6744 14.6922C31.0822 14.6922 30.6016 14.2115 30.6016 13.6193V12.452C30.6016 8.5039 33.8116 5.29395 37.7511 5.29395C41.6992 5.29395 44.9092 8.5039 44.9092 12.452V13.6193C44.9092 14.2115 44.4285 14.6922 43.8363 14.6922Z" fill="white"/>
<path d="M50.3931 54.5178H25.108C24.5158 54.5178 24.0352 54.0371 24.0352 53.4449C24.0352 52.8527 24.5158 52.3721 25.108 52.3721H50.3931C50.9853 52.3721 51.4659 52.8527 51.4659 53.4449C51.4659 54.0371 50.9853 54.5178 50.3931 54.5178Z" fill="white"/>
<path d="M50.3931 60.8005H25.108C24.5158 60.8005 24.0352 60.3199 24.0352 59.7276C24.0352 59.1354 24.5158 58.6548 25.108 58.6548H50.3931C50.9853 58.6548 51.4659 59.1354 51.4659 59.7276C51.4659 60.3199 50.9853 60.8005 50.3931 60.8005Z" fill="white"/>
<path d="M47.6976 48.4377H27.8111C27.2189 48.4377 26.7383 47.957 26.7383 47.3648C26.7383 41.3139 26.8413 37.486 28.8153 35.1686C30.0084 33.7696 31.6562 33.0229 32.9866 32.5938C31.7936 30.8429 31.9566 28.6628 32.3171 27.5385C32.9523 25.4957 34.6946 23.3071 37.6814 23.3071C41.2433 23.3071 43.0199 26.294 43.286 27.6586C43.6551 29.5812 43.3547 31.2806 42.4621 32.5766C43.7838 33.0057 45.4317 33.7525 46.6505 35.1772C48.6331 37.486 48.779 41.3225 48.779 47.3648C48.7705 47.957 48.2898 48.4377 47.6976 48.4377ZM28.884 46.292H46.6247C46.6076 41.4941 46.4102 38.1984 45.0112 36.5676C43.698 35.0313 41.4922 34.4906 40.4365 34.2417L40.076 34.1559C39.6641 34.0443 39.3551 33.7009 39.2864 33.2804C39.2178 32.8598 39.4151 32.4393 39.7756 32.2075C41.3978 31.1862 41.4321 29.3924 41.1746 28.0706C41.166 28.0448 40.3936 25.4528 37.6728 25.4528C35.3898 25.4528 34.5573 27.5385 34.3598 28.1822C34.3513 28.2165 33.5617 30.9201 35.6559 32.2333C36.0163 32.465 36.2138 32.8856 36.1451 33.3062C36.0764 33.7267 35.7674 34.07 35.3555 34.1816L35.0293 34.2588C33.8792 34.5421 31.7335 35.057 30.4461 36.559C29.0814 38.1554 28.9012 41.3225 28.884 46.292Z" fill="white"/>
<path d="M37.742 36.1463C37.5189 36.1463 37.2871 36.0776 37.0983 35.9317L34.7552 34.1722C34.2831 33.8203 34.1887 33.1423 34.5406 32.6702C34.8925 32.1981 35.5706 32.1037 36.0426 32.4556L37.7592 33.7431L39.5444 32.4471C40.0251 32.0952 40.6945 32.2067 41.0464 32.6874C41.3983 33.168 41.2868 33.8375 40.8061 34.1894L38.3772 35.9489C38.1883 36.0776 37.9652 36.1463 37.742 36.1463Z" fill="white"/>
<path d="M37.6656 43.6487C37.657 43.6487 37.6398 43.6487 37.6312 43.6487C37.3222 43.6401 37.039 43.4942 36.8416 43.2624L34.6616 40.6189C34.447 40.3614 34.3697 40.0267 34.4384 39.7005L35.6829 34.2075C35.8117 33.6325 36.3867 33.2634 36.9704 33.4008C37.348 33.4866 37.6398 33.7698 37.7514 34.1131C37.863 33.7698 38.1462 33.4952 38.5238 33.4008C39.0989 33.2634 39.6825 33.6153 39.8199 34.199L41.1502 39.7606C41.236 40.1125 41.133 40.4816 40.8841 40.7477L38.4552 43.3225C38.2406 43.5285 37.9574 43.6487 37.6656 43.6487ZM36.6442 39.6576L37.7171 40.9537L38.9187 39.6834L37.7514 34.7912L36.6442 39.6576Z" fill="white"/>
<path d="M52.1168 48.4384H23.3814C22.7892 48.4384 22.3086 47.9578 22.3086 47.3656V21.3854C22.3086 20.7931 22.7892 20.3125 23.3814 20.3125H52.1168C52.709 20.3125 53.1897 20.7931 53.1897 21.3854V47.357C53.1897 47.9578 52.709 48.4384 52.1168 48.4384ZM24.4543 46.2927H51.044V22.4668H24.4543V46.2927Z" fill="white"/>
</svg>
