<svg width="75" height="75" viewBox="0 0 75 75" fill="none" xmlns="http://www.w3.org/2000/svg">
<path d="M30.1121 46.7358C22.6249 46.7358 16.5352 40.6465 16.5352 33.1599C16.5352 25.6733 22.6249 19.584 30.1121 19.584C37.5992 19.584 43.689 25.6733 43.689 33.1599C43.689 40.6465 37.5992 46.7358 30.1121 46.7358ZM30.1121 21.3004C23.5738 21.3004 18.2603 26.6135 18.2603 33.1513C18.2603 39.6891 23.5738 45.0021 30.1121 45.0021C36.6504 45.0021 41.9639 39.6891 41.9639 33.1513C41.9639 26.6221 36.6418 21.3004 30.1121 21.3004Z" fill="white"/>
<path d="M56.7057 71.7989H3.51067C3.2519 71.7989 3.01038 71.6868 2.84649 71.4798C2.6826 71.2814 2.61358 71.014 2.66533 70.7639C5.68435 55.601 16.9668 45.0007 30.1039 45.0007C43.2409 45.0007 54.5321 55.5923 57.5511 70.7639C57.6028 71.014 57.5338 71.2814 57.3699 71.4798C57.206 71.6868 56.9645 71.7989 56.7057 71.7989ZM4.58025 70.0739H55.6448C52.4964 56.2737 42.1196 46.7344 30.1125 46.7344C18.0968 46.7344 7.72866 56.2737 4.58025 70.0739Z" fill="white"/>
<path d="M33.0881 54.8357H27.766C27.4814 54.8357 27.2054 54.6891 27.0501 54.4476L22.927 48.2462C22.6596 47.8495 22.7717 47.3147 23.1685 47.0474C23.5653 46.78 24.1001 46.8921 24.3675 47.2888L28.2404 53.1107H32.6223L36.2365 47.3147C36.4867 46.9093 37.0215 46.7886 37.4269 47.0387C37.8323 47.2888 37.953 47.8236 37.7029 48.229L33.8299 54.4304C33.6574 54.6805 33.3814 54.8357 33.0881 54.8357Z" fill="white"/>
<path d="M26.3778 71.7997C26.0586 71.7997 25.7567 71.6185 25.6014 71.3167L22.8671 65.7449C22.7636 65.5379 22.7463 65.2878 22.8326 65.0721L26.9557 53.6784C27.1196 53.2299 27.6112 52.997 28.0598 53.1609C28.5083 53.3248 28.7412 53.8164 28.5773 54.2649L24.575 65.3136L27.1455 70.5576C27.3525 70.9889 27.18 71.4977 26.7487 71.7134C26.6365 71.7738 26.5072 71.7997 26.3778 71.7997Z" fill="white"/>
<path d="M34.4775 71.7997C34.3481 71.7997 34.2187 71.7738 34.0979 71.7134C33.6667 71.5064 33.4941 70.9889 33.7012 70.5576L36.2717 65.3136L32.2693 54.2649C32.1054 53.8164 32.3383 53.3248 32.7868 53.1609C33.2354 52.997 33.727 53.2299 33.8909 53.6784L38.0141 65.0721C38.0917 65.2964 38.0831 65.5379 37.9795 65.7449L35.2452 71.3167C35.0986 71.6272 34.7966 71.7997 34.4775 71.7997Z" fill="white"/>
<path d="M58.9827 28.6575C51.5646 28.6575 45.5352 22.62 45.5352 15.2111C45.5352 7.79353 51.5646 1.76465 58.9827 1.76465C66.4009 1.76465 72.4303 7.80215 72.4303 15.2111C72.4389 22.62 66.4009 28.6575 58.9827 28.6575ZM58.9827 3.48102C52.522 3.48102 47.2603 8.74233 47.2603 15.2025C47.2603 21.6626 52.522 26.9239 58.9827 26.9239C65.452 26.9239 70.7051 21.6626 70.7051 15.2025C70.7051 8.74233 65.452 3.48102 58.9827 3.48102Z" fill="white"/>
<path d="M55.007 15.2021C55.007 16.1853 54.2134 16.9788 53.23 16.9788C52.2553 16.9788 51.4531 16.1853 51.4531 15.2021C51.4531 14.2188 52.2467 13.4253 53.23 13.4253C54.2134 13.4253 55.007 14.2188 55.007 15.2021Z" fill="white"/>
<path d="M60.7589 15.2021C60.7589 16.1853 59.9653 16.9788 58.982 16.9788C57.9986 16.9788 57.2051 16.1853 57.2051 15.2021C57.2051 14.2188 57.9986 13.4253 58.982 13.4253C59.9653 13.4253 60.7589 14.2188 60.7589 15.2021Z" fill="white"/>
<path d="M66.5109 15.2021C66.5109 16.1853 65.7173 16.9788 64.734 16.9788C63.7506 16.9788 62.957 16.1853 62.957 15.2021C62.957 14.2188 63.7506 13.4253 64.734 13.4253C65.7173 13.4253 66.5109 14.2188 66.5109 15.2021Z" fill="white"/>
</svg>
