<svg width="75" height="75" viewBox="0 0 75 75" fill="none" xmlns="http://www.w3.org/2000/svg">
<path d="M65.866 55.1211H40.3063C39.7141 55.1211 39.2334 54.6405 39.2334 54.0482C39.2334 53.456 39.7141 52.9754 40.3063 52.9754H65.866C66.1578 52.9754 66.3982 52.7351 66.3982 52.4433V15.022C66.3982 14.7302 66.1578 14.4899 65.866 14.4899H19.3556C19.0638 14.4899 18.8234 14.7302 18.8234 15.022V36.6937C18.8234 37.2859 18.3428 37.7666 17.7506 37.7666C17.1584 37.7666 16.6777 37.2859 16.6777 36.6937V15.0306C16.6777 13.5544 17.8793 12.3528 19.3556 12.3528H65.866C67.3423 12.3528 68.5439 13.5544 68.5439 15.0306V52.4518C68.5439 53.9195 67.3423 55.1211 65.866 55.1211Z" fill="white"/>
<path d="M67.471 23.1433H17.7506C17.1584 23.1433 16.6777 22.6626 16.6777 22.0704C16.6777 21.4782 17.1584 20.9976 17.7506 20.9976H67.471C68.0632 20.9976 68.5439 21.4782 68.5439 22.0704C68.5439 22.6626 68.0632 23.1433 67.471 23.1433Z" fill="white"/>
<path d="M63.0084 16.106H60.0645V19.1614H63.0084V16.106Z" fill="white"/>
<path d="M57.8951 16.106H54.9512V19.1614H57.8951V16.106Z" fill="white"/>
<path d="M52.7806 16.106H49.8281V19.1614H52.7806V16.106Z" fill="white"/>
<path d="M60.0649 31.8635H43.3111C42.7189 31.8635 42.2383 31.3828 42.2383 30.7906C42.2383 30.1984 42.7189 29.7178 43.3111 29.7178H60.0649C60.6571 29.7178 61.1377 30.1984 61.1377 30.7906C61.1377 31.3828 60.6571 31.8635 60.0649 31.8635Z" fill="white"/>
<path d="M60.0649 38.5219H43.3111C42.7189 38.5219 42.2383 38.0413 42.2383 37.4491C42.2383 36.8569 42.7189 36.3762 43.3111 36.3762H60.0649C60.6571 36.3762 61.1377 36.8569 61.1377 37.4491C61.1377 38.0413 60.6571 38.5219 60.0649 38.5219Z" fill="white"/>
<path d="M60.0649 45.1938H43.3111C42.7189 45.1938 42.2383 44.7132 42.2383 44.121C42.2383 43.5287 42.7189 43.0481 43.3111 43.0481H60.0649C60.6571 43.0481 61.1377 43.5287 61.1377 44.121C61.1377 44.7132 60.6571 45.1938 60.0649 45.1938Z" fill="white"/>
<path d="M38.2916 62.6312H9.84802C8.31169 62.6312 7.05859 61.3781 7.05859 59.8417V39.1656C7.05859 37.6293 8.31169 36.3762 9.84802 36.3762H38.2916C39.8279 36.3762 41.081 37.6293 41.081 39.1656V59.8417C41.081 61.3781 39.8279 62.6312 38.2916 62.6312ZM9.84802 38.5219C9.49612 38.5219 9.2043 38.8137 9.2043 39.1656V59.8417C9.2043 60.1936 9.49612 60.4854 9.84802 60.4854H38.2916C38.6435 60.4854 38.9353 60.1936 38.9353 59.8417V39.1656C38.9353 38.8137 38.6435 38.5219 38.2916 38.5219H9.84802Z" fill="white"/>
<path d="M11.943 58.5224C11.6855 58.5224 11.4195 58.4281 11.2135 58.2392C10.7757 57.8358 10.75 57.1578 11.1534 56.7201L19.9165 47.1931C20.1482 46.9356 20.4915 46.8155 20.8348 46.8584C21.1781 46.9013 21.4785 47.1072 21.6416 47.4076L24.268 52.1883L32.4818 42.8073C32.868 42.3609 33.5546 42.318 33.9923 42.7043C34.4387 43.0991 34.4816 43.7685 34.0953 44.2149L24.8774 54.746C24.6456 55.0121 24.3109 55.1494 23.9504 55.1065C23.5985 55.0721 23.2981 54.8661 23.1265 54.5572L20.483 49.7422L12.7326 58.1706C12.5181 58.4109 12.2348 58.5224 11.943 58.5224Z" fill="white"/>
<path d="M33.8963 49.0034C33.3041 49.0034 32.8234 48.5227 32.8234 47.9305V44.094H28.9869C28.3947 44.094 27.9141 43.6133 27.9141 43.0211C27.9141 42.4289 28.3947 41.9482 28.9869 41.9482H33.8963C34.4885 41.9482 34.9692 42.4289 34.9692 43.0211V47.9305C34.9692 48.5227 34.4885 49.0034 33.8963 49.0034Z" fill="white"/>
</svg>
