<svg width="75" height="75" viewBox="0 0 75 75" fill="none" xmlns="http://www.w3.org/2000/svg">
<path d="M32.2135 21.7898H28.377V25.7637H32.2135V21.7898Z" fill="white"/>
<path d="M24.4263 21.7898H20.5898V25.7637H24.4263V21.7898Z" fill="white"/>
<path d="M16.6334 21.7898H12.7969V25.7637H16.6334V21.7898Z" fill="white"/>
<path d="M22.0167 42.2691C11.8203 42.2691 3.5293 33.9781 3.5293 23.7817C3.5293 13.5852 11.8203 5.29419 22.0167 5.29419C30.0503 5.29419 37.2341 10.5898 39.6373 18.2199L47.0872 22.6144C47.4134 22.8032 47.6108 23.1551 47.6194 23.5327C47.6194 23.9104 47.4219 24.2623 47.1044 24.4597L39.7746 28.9056C37.5002 36.7846 30.2648 42.2691 22.0167 42.2691ZM22.0167 7.43131C13.0047 7.43131 5.67501 14.7611 5.67501 23.7731C5.67501 32.7851 13.0047 40.1148 22.0167 40.1148C29.4323 40.1148 35.9295 35.0939 37.8092 27.9186C37.8778 27.6525 38.0495 27.4208 38.2898 27.2749L44.4523 23.5413L38.1868 19.8507C37.9551 19.7134 37.7748 19.4902 37.6976 19.2242C35.6892 12.2807 29.2435 7.43131 22.0167 7.43131Z" fill="white"/>
<path d="M46.0143 48.7087H42.1777V52.6826H46.0143V48.7087Z" fill="white"/>
<path d="M53.7994 48.7087H49.9629V52.6826H53.7994V48.7087Z" fill="white"/>
<path d="M61.5924 48.7087H57.7559V52.6826H61.5924V48.7087Z" fill="white"/>
<path d="M52.3663 69.1861C44.3328 69.1861 37.149 63.8905 34.7458 56.2603L27.2959 51.8659C26.9697 51.6771 26.7723 51.3252 26.7637 50.9475C26.7637 50.5699 26.9611 50.218 27.2787 50.0206L34.6084 45.5833C36.8743 37.687 44.1096 32.2026 52.3577 32.2026C62.5541 32.2026 70.8452 40.4936 70.8452 50.6901C70.8624 60.8865 62.5627 69.1861 52.3663 69.1861ZM29.9307 50.9304L36.1963 54.621C36.428 54.7583 36.6082 54.9815 36.6855 55.2475C38.6939 62.1911 45.1481 67.0404 52.3749 67.0404C61.3869 67.0404 68.7166 59.7106 68.7166 50.6987C68.7166 41.6867 61.3869 34.3569 52.3749 34.3569C44.9507 34.3569 38.4621 39.3779 36.5824 46.5531C36.5138 46.8192 36.3421 47.0509 36.1018 47.1968L29.9307 50.9304Z" fill="white"/>
</svg>
