<svg width="75" height="75" viewBox="0 0 75 75" fill="none" xmlns="http://www.w3.org/2000/svg">
<path d="M53.9834 68.8684H25.3804C25.1475 68.8684 24.9318 68.7735 24.7679 68.6182L12.6056 56.4569C12.4417 56.293 12.3555 56.0774 12.3555 55.8446V13.435C12.3555 12.9606 12.7436 12.5725 13.218 12.5725H53.9748C54.4492 12.5725 54.8373 12.9606 54.8373 13.435V68.0059C54.846 68.4803 54.4578 68.8684 53.9834 68.8684ZM25.7426 67.1434H53.1208V14.2975H14.0893V55.4823L25.7426 67.1434Z" fill="white"/>
<path d="M61.5977 61.5896H54.9645C54.4901 61.5896 54.102 61.2015 54.102 60.7271C54.102 60.2527 54.4901 59.8646 54.9645 59.8646H60.7352V7.01896H21.7037V12.1422C21.7037 12.6166 21.3155 13.0047 20.8411 13.0047C20.3667 13.0047 19.9785 12.6166 19.9785 12.1422V6.15645C19.9785 5.68207 20.3667 5.29395 20.8411 5.29395H61.5977C62.0722 5.29395 62.4603 5.68207 62.4603 6.15645V60.7271C62.4603 61.2015 62.0722 61.5896 61.5977 61.5896Z" fill="white"/>
<path d="M25.38 68.8701C25.1557 68.8701 24.9314 68.7839 24.7675 68.62L12.6052 56.4587C12.3551 56.2086 12.2861 55.8378 12.4155 55.5186C12.5448 55.1995 12.864 54.9839 13.209 54.9839H25.3713C25.8457 54.9839 26.2339 55.372 26.2339 55.8464V68.0076C26.2339 68.3526 26.0269 68.6718 25.6991 68.8012C25.6042 68.8443 25.4921 68.8701 25.38 68.8701ZM15.3051 56.7089L24.5174 65.9203V56.7089H15.3051Z" fill="white"/>
<path d="M46.3652 25.1066H32.6848C32.2104 25.1066 31.8223 24.7185 31.8223 24.2441C31.8223 23.7697 32.2104 23.3816 32.6848 23.3816H46.3652C46.8396 23.3816 47.2278 23.7697 47.2278 24.2441C47.2278 24.7185 46.8483 25.1066 46.3652 25.1066Z" fill="white"/>
<path d="M25.5587 25.1066H21.22C20.7456 25.1066 20.3574 24.7185 20.3574 24.2441C20.3574 23.7697 20.7456 23.3816 21.22 23.3816H25.5587C26.0331 23.3816 26.4213 23.7697 26.4213 24.2441C26.4213 24.7185 26.0331 25.1066 25.5587 25.1066Z" fill="white"/>
<path d="M46.3675 35.6384H20.8352C20.3608 35.6384 19.9727 35.2502 19.9727 34.7759C19.9727 34.3015 20.3608 33.9133 20.8352 33.9133H46.3675C46.8419 33.9133 47.2301 34.3015 47.2301 34.7759C47.2301 35.2502 46.8505 35.6384 46.3675 35.6384Z" fill="white"/>
<path d="M25.5587 46.1751H21.22C20.7456 46.1751 20.3574 45.787 20.3574 45.3125C20.3574 44.8381 20.7456 44.45 21.22 44.45H25.5587C26.0331 44.45 26.4213 44.8381 26.4213 45.3125C26.4213 45.787 26.0331 46.1751 25.5587 46.1751Z" fill="white"/>
<path d="M46.3652 46.1751H32.6848C32.2104 46.1751 31.8223 45.787 31.8223 45.3125C31.8223 44.8381 32.2104 44.45 32.6848 44.45H46.3652C46.8396 44.45 47.2278 44.8381 47.2278 45.3125C47.2278 45.787 46.8483 46.1751 46.3652 46.1751Z" fill="white"/>
<path d="M46.3653 56.709H32.6848C32.2104 56.709 31.8223 56.3209 31.8223 55.8465C31.8223 55.372 32.2104 54.9839 32.6848 54.9839H46.3653C46.8397 54.9839 47.2279 55.372 47.2279 55.8465C47.2279 56.3209 46.8483 56.709 46.3653 56.709Z" fill="white"/>
</svg>
