<svg width="75" height="75" viewBox="0 0 75 75" fill="none" xmlns="http://www.w3.org/2000/svg">
<path d="M36.9491 22.1441C32.7915 22.1441 29.4102 18.7631 29.4102 14.5971C29.4102 10.4399 32.7915 7.05884 36.9491 7.05884C41.1067 7.05884 44.488 10.4399 44.488 14.5971C44.488 18.7544 41.1067 22.1441 36.9491 22.1441ZM36.9491 8.78385C33.7403 8.78385 31.1353 11.3886 31.1353 14.5971C31.1353 17.8057 33.7489 20.4191 36.9491 20.4191C40.1579 20.4191 42.7628 17.8057 42.7628 14.5971C42.7628 11.3886 40.1492 8.78385 36.9491 8.78385Z" fill="white"/>
<path d="M50.921 35.3034H22.9736C22.7148 35.3034 22.4733 35.1912 22.3094 34.9842C22.1455 34.7859 22.0765 34.5185 22.1282 34.2684C23.7499 26.1091 29.8483 20.408 36.9473 20.408C44.0463 20.408 50.1447 26.1091 51.7663 34.2684C51.8181 34.5185 51.7491 34.7859 51.5852 34.9842C51.4213 35.1912 51.1798 35.3034 50.921 35.3034ZM24.0518 33.5784H49.8342C48.0917 26.7905 42.9077 22.133 36.9386 22.133C30.9783 22.1416 25.7942 26.7905 24.0518 33.5784Z" fill="white"/>
<path d="M64.026 57.9111C63.5516 57.9111 63.1634 57.523 63.1634 57.0486V46.4828H11.2623V57.0486C11.2623 57.523 10.8741 57.9111 10.3997 57.9111C9.92527 57.9111 9.53711 57.523 9.53711 57.0486V45.6203C9.53711 45.1459 9.92527 44.7578 10.3997 44.7578H64.026C64.5004 44.7578 64.8886 45.1459 64.8886 45.6203V57.0486C64.8886 57.523 64.5091 57.9111 64.026 57.9111Z" fill="white"/>
<path d="M36.9505 57.9134C36.476 57.9134 36.0879 57.5253 36.0879 57.0509V36.989C36.0879 36.5146 36.476 36.1265 36.9505 36.1265C37.4249 36.1265 37.813 36.5146 37.813 36.989V57.0509C37.813 57.5253 37.4249 57.9134 36.9505 57.9134Z" fill="white"/>
<path d="M15.0477 67.6814H5.27468C4.80027 67.6814 4.41211 67.2933 4.41211 66.8189V57.0466C4.41211 56.5722 4.80027 56.1841 5.27468 56.1841H15.0477C15.5221 56.1841 15.9102 56.5722 15.9102 57.0466V66.8189C15.9102 67.2933 15.5221 67.6814 15.0477 67.6814ZM6.13726 65.9564H14.1851V57.9091H6.13726V65.9564Z" fill="white"/>
<path d="M68.9168 67.6814H59.1438C58.6694 67.6814 58.2812 67.2933 58.2812 66.8189V57.0466C58.2812 56.5722 58.6694 56.1841 59.1438 56.1841H68.9168C69.3912 56.1841 69.7794 56.5722 69.7794 57.0466V66.8189C69.7794 67.2933 69.3912 67.6814 68.9168 67.6814ZM60.0064 65.9564H68.0542V57.9091H60.0064V65.9564Z" fill="white"/>
<path d="M40.5984 67.6814H30.8255C30.351 67.6814 29.9629 67.2933 29.9629 66.8189V57.0466C29.9629 56.5722 30.351 56.1841 30.8255 56.1841H40.5984C41.0729 56.1841 41.461 56.5722 41.461 57.0466V66.8189C41.461 67.2933 41.0815 67.6814 40.5984 67.6814ZM31.6967 65.9564H39.7445V57.9091H31.6967V65.9564Z" fill="white"/>
</svg>
