<svg width="120" height="80" viewBox="0 0 120 80" fill="none" xmlns="http://www.w3.org/2000/svg">
<path d="M76.0426 69.0025H44.4844C44.1049 69.0025 43.7969 68.6945 43.7969 68.315C43.7969 58.0467 44.0994 52.8494 46.8438 49.6264C49.0437 47.047 52.3712 45.9635 54.4831 45.4135C51.0677 42.1906 52.5802 37.2022 52.5967 37.1472C52.9102 36.1462 54.7526 31.1414 60.137 31.1414C65.6534 31.1414 67.8038 36.0143 68.0403 37.2242C68.7003 40.6452 67.9523 43.4776 65.9284 45.375C68.0183 45.9195 71.3402 46.9975 73.5952 49.6264C76.5156 53.0364 76.7301 58.9597 76.7301 68.315C76.7301 68.7 76.4221 69.0025 76.0426 69.0025ZM45.1718 67.6275H75.3551C75.3441 58.9872 75.1021 53.4928 72.5557 50.5229C70.2512 47.8335 66.5443 46.9315 64.7624 46.5025C64.5534 46.453 64.3664 46.4035 64.2124 46.365C63.9484 46.2935 63.7504 46.0735 63.7064 45.804C63.6624 45.5345 63.7889 45.265 64.0199 45.1165C67.0723 43.1916 67.1603 39.9082 66.6928 37.4937C66.5003 36.5037 64.7239 32.5163 60.137 32.5163C55.8251 32.5163 54.2796 36.3772 53.9111 37.5597C53.8946 37.6092 52.3767 42.6251 56.3916 45.155C56.6226 45.3035 56.7491 45.573 56.7051 45.8425C56.6611 46.112 56.4631 46.332 56.1991 46.4035C56.0506 46.442 55.8746 46.486 55.6876 46.53C53.8891 46.97 50.1382 47.883 47.8943 50.5174C45.4963 53.3333 45.1828 58.1567 45.1718 67.6275Z" fill="#303030"/>
<path d="M108.492 69.0025H76.9336C76.5541 69.0025 76.2461 68.6945 76.2461 68.315C76.2461 58.0467 76.5486 52.8494 79.293 49.6264C81.493 47.047 84.8204 45.9635 86.9323 45.4135C83.5169 42.1906 85.0294 37.2022 85.0459 37.1472C85.3594 36.1462 87.2018 31.1414 92.5862 31.1414C98.1026 31.1414 100.253 36.0143 100.49 37.2242C101.15 40.6452 100.402 43.4776 98.3776 45.375C100.468 45.9195 103.789 46.9975 106.044 49.6264C108.965 53.0364 109.179 58.9597 109.179 68.315C109.179 68.7 108.871 69.0025 108.492 69.0025ZM77.6211 67.6275H107.804C107.793 58.9872 107.551 53.4928 105.005 50.5229C102.7 47.8335 98.9936 46.9315 97.2116 46.5025C97.0026 46.453 96.8156 46.4035 96.6616 46.365C96.3976 46.2935 96.1996 46.0735 96.1556 45.804C96.1116 45.5345 96.2381 45.265 96.4691 45.1165C99.5216 43.1916 99.6096 39.9082 99.1421 37.4937C98.9496 36.5037 97.1731 32.5163 92.5862 32.5163C88.2743 32.5163 86.7289 36.3772 86.3604 37.5597C86.3439 37.6092 84.8259 42.6251 88.8408 45.155C89.0718 45.3035 89.1983 45.573 89.1543 45.8425C89.1103 46.112 88.9123 46.332 88.6483 46.4035C88.4998 46.442 88.3238 46.486 88.1368 46.53C86.3384 46.97 82.5875 47.883 80.3435 50.5174C77.9456 53.3333 77.6321 58.1567 77.6211 67.6275Z" fill="#303030"/>
<path d="M43.2458 69.0025H11.6875C11.308 69.0025 11 68.6945 11 68.315C11 58.0467 11.3025 52.8494 14.0469 49.6264C16.2469 47.047 19.5743 45.9635 21.6862 45.4135C18.2708 42.1906 19.7833 37.2022 19.7998 37.1472C20.1133 36.1462 21.9558 31.1414 27.3401 31.1414C32.8565 31.1414 35.0069 36.0143 35.2434 37.2242C35.9034 40.6452 35.1554 43.4776 33.1315 45.375C35.2214 45.9195 38.5434 46.9975 40.7983 49.6264C43.7187 53.0364 43.9332 58.9597 43.9332 68.315C43.9332 68.7 43.6252 69.0025 43.2458 69.0025ZM12.375 67.6275H42.5583C42.5473 58.9872 42.3053 53.4928 39.7588 50.5229C37.4544 47.8335 33.7475 46.9315 31.9655 46.5025C31.7565 46.453 31.5695 46.4035 31.4155 46.365C31.1515 46.2935 30.9535 46.0735 30.9095 45.804C30.8655 45.5345 30.992 45.265 31.223 45.1165C34.2755 43.1916 34.3635 39.9082 33.896 37.4937C33.7035 36.5037 31.927 32.5163 27.3401 32.5163C23.0282 32.5163 21.4828 36.3772 21.1143 37.5597C21.0978 37.6092 19.5798 42.6251 23.5947 45.155C23.8257 45.3035 23.9522 45.573 23.9082 45.8425C23.8642 46.112 23.6662 46.332 23.4022 46.4035C23.2537 46.442 23.0777 46.486 22.8907 46.53C21.0923 46.97 17.3414 47.883 15.0974 50.5174C12.6995 53.3333 12.386 58.1567 12.375 67.6275Z" fill="#303030"/>
<path d="M38.6046 25.2722C36.4926 25.8222 33.1652 26.9056 30.9653 29.4851C30.3588 30.1973 29.8715 31.006 29.4805 31.9444L30.7378 32.5033C31.0788 31.6833 31.4989 30.983 32.0157 30.3761C34.2547 27.7475 37.9939 26.8327 39.797 26.3916L39.8091 26.3886C39.9961 26.3446 40.172 26.3007 40.3205 26.2622C40.5845 26.1907 40.7825 25.9707 40.8265 25.7012C40.8705 25.4317 40.7441 25.1622 40.5131 25.0137C36.4982 22.4837 38.0161 17.4679 38.0326 17.4184C38.4011 16.2359 39.9466 12.375 44.2585 12.375C48.8454 12.375 50.6218 16.3624 50.8143 17.3524C51.2818 19.7668 51.1938 23.0502 48.1414 24.9752C47.9104 25.1237 47.7839 25.3932 47.8279 25.6627C47.8719 25.9322 48.0699 26.1522 48.3339 26.2237C48.4879 26.2622 48.6749 26.3117 48.8838 26.3612C50.6658 26.7901 54.3727 27.6921 56.6772 30.3816C57.0781 30.8492 57.4219 31.3793 57.7166 31.9745H59.2217C58.8239 31.0282 58.33 30.2012 57.7166 29.4851C55.4617 26.8561 52.1398 25.7782 50.0498 25.2337C52.0738 23.3362 52.8218 20.5038 52.1618 17.0829C51.9253 15.8729 49.7748 11 44.2585 11C38.8741 11 37.0316 16.0049 36.7181 17.0059L36.718 17.0065C36.693 17.0896 35.199 22.0585 38.6046 25.2722Z" fill="#303030"/>
<path d="M38.6046 48.8611L37.1822 47.4861H50.0498L48.8628 48.8611H38.6046Z" fill="#303030"/>
<path d="M70.8251 25.2722C68.7132 25.8222 65.3858 26.9056 63.1858 29.4851C62.6044 30.1679 62.1326 30.9393 61.75 31.8287L63.0248 32.3472C63.3536 31.594 63.7525 30.9442 64.2363 30.3761C66.4753 27.7475 70.2145 26.8327 72.0176 26.3916L72.0296 26.3886C72.2166 26.3446 72.3926 26.3007 72.5411 26.2622C72.8051 26.1907 73.0031 25.9707 73.0471 25.7012C73.0911 25.4317 72.9646 25.1622 72.7336 25.0137C68.7187 22.4837 70.2367 17.4679 70.2532 17.4184C70.6217 16.2359 72.1671 12.375 76.479 12.375C81.0659 12.375 82.8424 16.3624 83.0349 17.3524C83.5023 19.7668 83.4144 23.0502 80.3619 24.9752C80.1309 25.1237 80.0044 25.3932 80.0484 25.6627C80.0924 25.9322 80.2904 26.1522 80.5544 26.2237C80.7084 26.2622 80.8954 26.3117 81.1044 26.3612C82.8864 26.7901 86.5933 27.6921 88.8977 30.3816C89.3805 30.9446 89.7804 31.5984 90.1117 32.3472L91.4804 32.0666C91.0763 31.0817 90.5703 30.2243 89.9372 29.4851C87.6822 26.8561 84.3603 25.7782 82.2704 25.2337C84.2943 23.3362 85.0423 20.5038 84.3823 17.0829C84.1458 15.8729 81.9954 11 76.479 11C71.0946 11 69.2522 16.0049 68.9387 17.0059L68.9385 17.0065C68.9135 17.0895 67.4195 22.0585 70.8251 25.2722Z" fill="#303030"/>
<path d="M71.8194 48.8611L69.8056 47.4861H82.6944L81.0833 48.8611H71.8194Z" fill="#303030"/>
</svg>
