<svg width="120" height="80" viewBox="0 0 120 80" fill="none" xmlns="http://www.w3.org/2000/svg">
<path d="M78.6174 45.8452C78.3953 45.8452 78.1818 45.7598 78.0109 45.5975L63.3358 30.915C63.0027 30.5819 63.0027 30.0438 63.3358 29.7106C63.6689 29.3775 64.207 29.3775 64.5402 29.7106L79.2154 44.3932C79.5485 44.7263 79.5485 45.2644 79.2154 45.5975C79.0531 45.7683 78.831 45.8452 78.6174 45.8452Z" fill="#303030"/>
<path d="M40.8209 49.3825C40.5988 49.3825 40.3852 49.2971 40.2144 49.1348L39.2235 48.1525C35.1917 44.5225 33.2697 41.6013 33.2014 38.9791C33.1587 37.4759 33.7481 36.1093 34.944 34.9135L46.1597 22.5542C50.3538 18.3519 54.4796 21.5549 57.4864 23.8866L57.811 24.1344C58.1868 24.4248 58.2552 24.9629 57.9647 25.3301C57.6743 25.7059 57.1361 25.7743 56.7688 25.4839L56.4442 25.2276C52.9676 22.5286 50.2769 20.8374 47.3983 23.7158L36.1826 36.0751C35.2942 36.9634 34.8927 37.8859 34.9183 38.9108C34.9696 40.9949 36.7719 43.6085 40.4108 46.8884L41.4274 47.9048C41.7605 48.2379 41.7605 48.7761 41.4274 49.1092C41.2565 49.2971 41.0345 49.3825 40.8209 49.3825Z" fill="#303030"/>
<path d="M80.0963 56.3851C79.0285 56.3851 77.9693 55.8897 76.9784 54.9074L72.6561 50.5855C72.323 50.2524 72.323 49.7143 72.6561 49.3812C72.9892 49.0481 73.5274 49.0481 73.8606 49.3812L78.1828 53.7031C79.0114 54.5316 80.3098 55.4199 82.0866 53.6519C82.8297 52.9088 84.0683 51.6703 80.8992 48.5015L77.8241 45.4266C77.491 45.0935 77.491 44.5554 77.8241 44.2222C78.1572 43.8891 78.6954 43.8891 79.0285 44.2222L82.1036 47.2971C85.0506 50.2439 85.435 52.7123 83.291 54.8562C82.2745 55.8726 81.1896 56.3851 80.0963 56.3851Z" fill="#303030"/>
<path d="M74.9282 61.5544C73.8604 61.5544 72.8012 61.059 71.8104 60.0767L67.4881 55.7548C67.155 55.4217 67.155 54.8836 67.4881 54.5505C67.8213 54.2174 68.3594 54.2174 68.6926 54.5505L73.0148 58.8724C73.8434 59.6924 75.1417 60.5892 76.9185 58.8126C77.6616 58.0695 78.9002 56.831 75.7311 53.6622L72.656 50.5873C72.3229 50.2542 72.3229 49.7161 72.656 49.383C72.9891 49.0499 73.5273 49.0499 73.8604 49.383L76.9355 52.4579C79.9167 55.4388 80.3011 57.8474 78.1229 60.0169C77.1149 61.0419 76.0216 61.5544 74.9282 61.5544Z" fill="#303030"/>
<path d="M69.751 66.7083C68.6662 66.7083 67.624 66.2129 66.6502 65.2392L62.328 60.9173C61.9948 60.5842 61.9948 60.0461 62.328 59.713C62.6611 59.3799 63.1992 59.3799 63.5324 59.713L67.8546 64.0349C68.5466 64.7268 69.2385 65.0598 69.9048 65.0001C70.5027 64.9488 71.1262 64.6072 71.7498 63.9836C72.493 63.2405 73.7316 62.0021 70.5625 58.8332L67.4873 55.7584C67.1542 55.4253 67.1542 54.8871 67.4873 54.554C67.8205 54.2209 68.3587 54.2209 68.6918 54.554L71.7669 57.6289C74.7481 60.6098 75.1239 63.0185 72.9543 65.188C72.0317 66.1104 71.0579 66.6144 70.0414 66.6998C69.956 66.7083 69.8535 66.7083 69.751 66.7083Z" fill="#303030"/>
<path d="M64.5859 71.8825C63.5011 71.8825 62.459 71.3871 61.4852 70.4134L58.5467 67.4752C58.2136 67.1421 58.2136 66.604 58.5467 66.2709C58.8799 65.9378 59.418 65.9378 59.7511 66.2709L62.6896 69.2091C63.3815 69.9009 64.0734 70.2255 64.7397 70.1743C65.3376 70.123 65.9612 69.7814 66.5847 69.1578C67.2339 68.5087 67.4987 67.9364 67.4475 67.2958C67.3791 66.4075 66.6872 65.3057 65.3974 64.016L62.3223 60.9411C61.9891 60.608 61.9891 60.0699 62.3223 59.7368C62.6554 59.4037 63.1935 59.4037 63.5267 59.7368L66.6018 62.8117C68.2077 64.4174 69.0448 65.8438 69.1473 67.1592C69.2413 68.3123 68.7971 69.3628 67.7892 70.3707C66.8666 71.2932 65.8928 71.7971 64.8763 71.8825C64.7909 71.874 64.6884 71.8825 64.5859 71.8825Z" fill="#303030"/>
<path d="M81.0093 48.2583C80.7872 48.2583 80.5736 48.1729 80.4028 48.0106C80.0697 47.6775 80.0697 47.1394 80.4028 46.8063L82.9484 44.261C84.6482 42.5613 85.6989 40.7932 85.9722 39.1533C86.2712 37.3938 85.6903 35.7709 84.2467 34.3274L72.8687 23.0444C71.6045 21.7803 69.9218 21.1055 68.0169 21.1055C68.0083 21.1055 67.9998 21.1055 67.9913 21.1055C64.8991 21.114 61.4737 22.8565 58.3559 26.0082L52.0861 32.8071C51.77 33.1573 51.2233 33.1744 50.8816 32.8583C50.5314 32.5423 50.5143 31.9957 50.8304 31.654L57.1258 24.838C60.5853 21.3361 64.4378 19.4143 67.9913 19.4058C67.9998 19.4058 68.0083 19.4058 68.0169 19.4058C70.3916 19.4058 72.4844 20.2428 74.0732 21.84L85.4512 33.1231C87.2877 34.9595 88.0479 37.1375 87.655 39.4437C87.3133 41.4424 86.1003 43.5264 84.1528 45.4739L81.6073 48.0192C81.4535 48.1729 81.2314 48.2583 81.0093 48.2583Z" fill="#303030"/>
<path d="M52.8554 40.3802C51.873 40.3802 50.942 39.9532 50.0365 39.1076C49.0883 38.2193 48.5417 37.2541 48.4136 36.2377C48.2683 35.0334 48.7125 33.8717 49.7461 32.7699L53.9231 28.3113C54.2477 27.9697 54.7859 27.9526 55.1276 28.2686C55.4692 28.5932 55.4863 29.1313 55.1703 29.473L50.9932 33.9315C50.3269 34.6405 50.028 35.3494 50.1134 36.0241C50.2074 36.7758 50.7626 37.442 51.2068 37.8605C51.9585 38.5695 53.2227 39.7482 56.2807 36.4854L63.3535 29.7036C63.6952 29.379 64.2333 29.3875 64.5579 29.7292C64.8825 30.0709 64.874 30.609 64.5323 30.9335L57.4937 37.6812C55.8023 39.4834 54.2733 40.3802 52.8554 40.3802Z" fill="#303030"/>
<path d="M42.4443 56.8936C41.3766 56.8936 40.1978 56.6374 39.3351 55.7406C37.3705 53.6992 38.7542 50.2912 38.814 50.146C38.8567 50.0435 38.9165 49.9495 39.002 49.8726L41.1973 47.6775C43.1192 45.7557 44.7592 44.671 46.237 44.3464C47.6037 44.0474 48.8081 44.4147 49.8246 45.4226C50.7472 46.3451 51.1914 47.4811 51.1145 48.6939C51.0291 49.9837 50.3543 51.2734 49.1071 52.5204L45.3828 56.2445C45.2974 56.3299 45.1863 56.3982 45.0667 56.4409C44.9728 56.4836 43.8025 56.8936 42.4443 56.8936ZM40.3345 50.9488C40.1466 51.504 39.5572 53.5112 40.5652 54.5533C41.5731 55.6039 43.7 55.0743 44.3065 54.8864L47.8856 51.3076C48.8167 50.3766 49.3377 49.437 49.3975 48.5744C49.4488 47.8569 49.184 47.1992 48.6117 46.6269C48.0137 46.029 47.3902 45.8326 46.5958 46.012C45.4682 46.2597 44.0588 47.2248 42.4016 48.8819L40.3345 50.9488Z" fill="#303030"/>
<path d="M47.1165 61.717C46.1342 61.717 45.0494 61.4778 44.2464 60.6493C42.4355 58.7702 43.7083 55.6441 43.7595 55.516C43.8022 55.4135 43.862 55.3195 43.9474 55.2427L45.9292 53.2611C47.6717 51.5186 49.1581 50.5449 50.4821 50.2802C51.7036 50.0325 52.8055 50.3827 53.7366 51.3222C55.5731 53.1586 55.3595 55.5672 53.1728 57.7538L49.8158 61.1105C49.7303 61.1959 49.6193 61.2643 49.4997 61.307C49.4228 61.3412 48.3551 61.717 47.1165 61.717ZM45.2885 56.3189C45.1177 56.8314 44.6137 58.5738 45.4765 59.4706C46.2709 60.2991 47.9963 59.9916 48.748 59.761L51.9684 56.5495C53.4888 55.0291 53.6767 53.6796 52.5321 52.5351C51.994 51.997 51.4814 51.8261 50.8237 51.9628C49.8585 52.1593 48.6113 53.0049 47.1421 54.4825L45.2885 56.3189Z" fill="#303030"/>
<path d="M51.319 66.0723C50.4136 66.0723 49.4142 65.8588 48.6796 65.09C47.0139 63.3562 48.1756 60.4948 48.2268 60.3752C48.2695 60.2727 48.3293 60.1788 48.4148 60.1019L50.2 58.3168C52.0707 56.4462 54.8383 54.234 57.2643 56.6598C58.0758 57.4712 59.656 59.6663 56.8457 62.4849L53.8218 65.5086C53.7364 65.594 53.6254 65.6623 53.5058 65.705C53.4289 65.7221 52.4551 66.0723 51.319 66.0723ZM49.7558 61.1696C49.6021 61.6394 49.175 63.1341 49.9181 63.9028C50.6015 64.6117 52.0878 64.3469 52.7541 64.1505L55.6413 61.2721C57.3497 59.5553 56.7005 58.5047 56.0598 57.8641C55.5388 57.3431 54.565 56.3694 51.413 59.5211L49.7558 61.1696Z" fill="#303030"/>
<path d="M54.7718 69.7349C53.9859 69.7349 53.1061 69.5384 52.4484 68.8551C50.9792 67.3348 51.9957 64.8407 52.0384 64.7382C52.0811 64.6357 52.1409 64.5418 52.2263 64.4649L53.7297 62.9616C56.241 60.4505 58.0947 60.0576 59.7347 61.6975C60.4523 62.4064 60.811 63.1325 60.8366 63.9183C60.8708 64.8322 60.4266 65.7546 59.5212 66.66L56.9671 69.2139C56.8817 69.2993 56.7706 69.3676 56.651 69.4103C56.5144 69.4616 55.7114 69.7349 54.7718 69.7349ZM53.5674 65.5326C53.3965 66.0365 53.1745 67.1383 53.687 67.6679C54.208 68.2146 55.3954 67.9925 55.9164 67.8473L58.3253 65.4386C58.8805 64.8834 59.1539 64.388 59.1453 63.9695C59.1368 63.6364 58.9318 63.2862 58.5388 62.8933C58.0178 62.3723 57.3771 61.7231 54.9426 64.1489L53.5674 65.5326Z" fill="#303030"/>
<path d="M88.9897 38.136C88.7591 38.136 88.5455 38.042 88.3832 37.8883L69.1209 18.6276C68.7878 18.2945 68.7878 17.7564 69.1209 17.4232L78.2865 8.24983C78.6197 7.91672 79.1578 7.91672 79.4909 8.24983L98.7532 27.5105C98.9155 27.6728 99.0009 27.8864 99.0009 28.117C99.0009 28.3476 98.907 28.5611 98.7532 28.7234L89.5791 37.8968C89.4338 38.0505 89.2118 38.136 88.9897 38.136ZM70.9319 18.0211L88.9812 36.0775L96.9423 28.117L78.8845 10.0691L70.9319 18.0211Z" fill="#303030"/>
<path d="M31.8426 40.3758C31.6291 40.3758 31.4241 40.2989 31.2618 40.1537L21.2761 30.9974C20.9259 30.6813 20.9088 30.1347 21.2249 29.793L39.6415 9.72089C39.9575 9.37069 40.5042 9.34507 40.8459 9.66964L50.8315 18.826C51.0024 18.9797 51.0963 19.1932 51.1049 19.4153C51.1134 19.6374 51.0365 19.8595 50.8828 20.0303L32.4662 40.1024C32.3124 40.2733 32.0989 40.3672 31.8768 40.3758C31.8682 40.3672 31.8512 40.3758 31.8426 40.3758ZM23.0699 30.3055L31.7914 38.3087L49.0548 19.4922L40.3334 11.4889L23.0699 30.3055Z" fill="#303030"/>
</svg>
