<svg width="70" height="70" viewBox="0 0 70 70" fill="none" xmlns="http://www.w3.org/2000/svg">
<rect width="70" height="70" fill="#6C5845"/>
<path d="M29.2724 23.021C29.2724 28.0782 33.3874 32.192 38.4462 32.192C43.5049 32.192 47.62 28.0774 47.62 23.021C47.62 17.9645 43.5041 13.85 38.4462 13.85C33.3883 13.85 29.2724 17.9637 29.2724 23.021ZM45.6788 23.021C45.6788 27.0077 42.4342 30.2521 38.4453 30.2521C34.4565 30.2521 31.2119 27.0085 31.2119 23.021C31.2119 19.0343 34.4565 15.7906 38.4453 15.7906C42.4342 15.7906 45.6788 19.0343 45.6788 23.021Z" fill="white" stroke="white" stroke-width="0.3"/>
<path d="M33.1373 38.0153L33.1368 38.0151C32.0162 37.5247 30.8214 37.2763 29.5856 37.2763C26.1702 37.2763 23.4305 38.8159 21.945 41.5199L28.1884 47.7614L28.7797 47.1911L33.1373 38.0153ZM33.1373 38.0153C33.2598 38.0683 33.3916 38.0966 33.526 38.0966H42.8419C43.6502 38.0966 44.333 38.7562 44.333 39.5864C44.333 40.4083 43.6642 41.077 42.8419 41.077H36.1485C35.6127 41.077 35.1779 41.5116 35.1779 42.0473C35.1779 42.583 35.6127 43.0176 36.1485 43.0176H42.8419C44.734 43.0176 46.2733 41.4789 46.2733 39.5872C46.2733 39.4607 46.2661 39.3356 46.2522 39.2113M33.1373 38.0153L46.2522 39.2113M46.2522 39.2113C47.6743 37.75 48.722 36.6737 49.4919 35.8827C49.9728 35.3886 50.3454 35.0058 50.6332 34.7102C51.3829 33.9397 51.5615 33.7558 51.5801 33.7341L51.5805 33.7336C52.1114 33.1067 53.055 33.0271 53.6825 33.5561C54.31 34.0866 54.3899 35.0288 53.8567 35.6595L53.8562 35.6601L46.5035 44.4475C45.458 45.4482 44.0863 45.9989 42.6367 45.9989H31.7314C30.6242 45.9989 29.5751 46.4224 28.7799 47.191L46.2522 39.2113ZM24.7116 55.8707L24.7116 55.8706L28.6889 51.9536L28.6897 51.9528C29.3833 51.2595 29.6098 50.2443 29.3393 49.3453L30.1278 48.5858L30.128 48.5856C30.5603 48.168 31.1294 47.9379 31.7322 47.9379H42.6375C44.6102 47.9379 46.4747 47.1813 47.8892 45.8064C47.8968 45.8002 47.9033 45.794 47.9099 45.7869C47.9208 45.7754 47.9401 45.7529 47.9816 45.7039C48.067 45.6028 48.2574 45.3754 48.6916 44.8564C48.8379 44.6815 49.012 44.4734 49.2191 44.2257C50.2414 43.0035 52.0689 40.8186 55.3421 36.908C56.5633 35.4633 56.3804 33.2949 54.9346 32.0734L54.9344 32.0732C53.4983 30.8638 51.3489 31.0358 50.1238 32.4524L45.401 37.3049C44.7633 36.594 43.8388 36.1568 42.8435 36.1568H33.7242C32.4124 35.612 31.0204 35.3365 29.5864 35.3365C25.6244 35.3365 22.1476 37.1509 20.2558 40.5644C19.4612 40.4483 18.636 40.7031 18.0358 41.3039L18.0357 41.304L14.1331 45.2169C14.1331 45.2169 14.1331 45.2169 14.1331 45.2169C13.7565 45.5944 13.7554 46.2066 14.1312 46.5851L14.1312 46.5851L23.3421 55.8629C23.7186 56.2422 24.3302 56.2461 24.7116 55.8707ZM20.2393 42.581L20.2403 42.5816C20.2593 42.5931 20.2639 42.5954 20.2661 42.5965C20.2678 42.5973 20.2679 42.5974 20.2725 42.6007C20.2811 42.6071 20.2997 42.6226 20.3481 42.6688C20.4433 42.7595 20.6343 42.9495 21.0537 43.3691C21.2173 43.5329 21.4155 43.7314 21.656 43.9723C22.6457 44.9637 24.3522 46.6731 27.3173 49.633C27.5852 49.9007 27.5706 50.3271 27.3218 50.5763C27.3217 50.5764 27.3216 50.5765 27.3214 50.5767L24.0381 53.8105L16.1889 45.903L19.4083 42.6751C19.6295 42.4539 19.9682 42.4138 20.2393 42.581Z" fill="white" stroke="white" stroke-width="0.3"/>
<path d="M37.4616 18.1008V19.0614C36.5065 19.3994 35.8205 20.3116 35.8205 21.3804C35.8205 22.7372 36.9241 23.8406 38.2814 23.8406C38.7335 23.8406 39.1019 24.2081 39.1019 24.6609C39.1019 25.1137 38.7343 25.4812 38.2814 25.4812C37.931 25.4812 37.5527 25.2613 37.2163 24.861C36.925 24.514 36.4072 24.4697 36.0601 24.7609C35.713 25.0522 35.6687 25.5698 35.96 25.9168C36.3982 26.4385 36.9143 26.8019 37.4608 26.9848V27.9421C37.4608 28.3949 37.8284 28.7624 38.2814 28.7624C38.7343 28.7624 39.1019 28.3958 39.1019 27.9421V26.9815C40.0571 26.6427 40.7431 25.7314 40.7431 24.6625C40.7431 23.3057 39.6394 22.2024 38.2822 22.2024C37.8301 22.2024 37.4616 21.8349 37.4616 21.3821C37.4616 20.9293 37.8292 20.5618 38.2822 20.5618C38.5727 20.5618 38.8796 20.7102 39.1692 20.9908C39.495 21.3058 40.0144 21.2968 40.3295 20.9719C40.6446 20.6463 40.6356 20.127 40.3106 19.812C39.8946 19.4092 39.4778 19.1812 39.1028 19.0573V18.1008C39.1028 17.648 38.7351 17.2805 38.2822 17.2805C37.8292 17.2805 37.4616 17.6472 37.4616 18.1008Z" stroke="white" stroke-width="0.8"/>
</svg>
