<svg width="70" height="70" viewBox="0 0 70 70" fill="none" xmlns="http://www.w3.org/2000/svg">
<rect width="70" height="70" fill="#B4A37B"/>
<path d="M41.7995 20.6451L41.7995 20.6451C42.0757 20.6683 42.3278 20.8136 42.486 21.0418C42.486 21.0419 42.486 21.0419 42.4861 21.0419L43.6782 22.7604V22.5938C43.6782 18.7996 40.5831 15.7125 36.7781 15.7125H33.6569C29.8826 15.7125 26.8114 18.7985 26.8114 22.5938V22.6864L27.9286 21.0477L41.7995 20.6451ZM41.7995 20.6451C41.5223 20.6218 41.2504 20.7233 41.0568 20.9218M41.7995 20.6451L41.0568 20.9218M41.0568 20.9218C39.5021 22.5136 37.7065 23.225 35.2097 23.225M41.0568 20.9218L35.2097 23.225M35.2097 23.225C32.7137 23.225 30.9172 22.5136 29.3617 20.9217M35.2097 23.225L29.3617 20.9217M29.3617 20.9217C29.1671 20.7223 28.8927 20.6209 28.6155 20.6451M29.3617 20.9217L28.6155 20.6451M28.6155 20.6451C28.3383 20.6693 28.0853 20.8173 27.9288 21.0475L28.6155 20.6451ZM29.6651 46.0797L29.6651 46.0798C29.7683 46.3114 29.9616 46.4921 30.201 46.5779C30.4402 46.6637 30.7035 46.6477 30.9311 46.5342L30.9315 46.5341L31.3304 46.3338L31.897 48.1016L30.9169 52.2875H19.7106V45.7008C19.7106 44.1536 20.6515 42.6929 22.0353 41.5803C23.3887 40.4922 25.1447 39.7553 26.7892 39.6089L29.6651 46.0797ZM38.5218 48.1155L39.1307 46.3554L39.4864 46.534L39.4865 46.5341C39.7155 46.6488 39.9797 46.6627 40.2167 46.578L40.2168 46.5779C40.4562 46.4921 40.6496 46.3114 40.7527 46.0798L40.7527 46.0797L43.6286 39.6089C45.2731 39.7557 47.0291 40.4926 48.3825 41.5806C49.7664 42.6931 50.7072 44.1536 50.7072 45.7008V52.2875H39.472L38.5218 48.1155ZM52.5686 45.7008C52.5686 43.4931 51.3136 41.5378 49.5457 40.1203C47.7926 38.7147 45.5175 37.8226 43.4038 37.7281L41.4428 35.9641C43.9951 34.0289 45.5388 30.9834 45.5388 27.75V22.5938C45.5388 17.7724 41.6089 13.85 36.7781 13.85H33.6569C28.8314 13.85 24.9508 17.7593 24.9508 22.5938V27.75C24.9508 30.9771 26.4735 34.017 28.9929 35.9494L27.0156 37.7281C24.9061 37.8222 22.6309 38.7121 20.8766 40.1167C19.1074 41.5332 17.85 43.4887 17.85 45.7008V53.2188C17.85 53.7327 18.2666 54.15 18.7803 54.15H51.6383C52.152 54.15 52.5686 53.7327 52.5686 53.2188V45.7008ZM32.8278 52.2875L33.5994 48.9938H36.8137L37.5632 52.2875H32.8278ZM37.4525 45.5151L36.8937 47.1312H33.5408L33.0149 45.4907L35.2097 44.392L37.4525 45.5151ZM35.2097 41.5933L32.8244 37.773C33.6044 37.9598 34.4073 38.0562 35.2175 38.0562C36.0198 38.0562 36.8166 37.9616 37.5912 37.7786L35.2097 41.5933ZM39.4484 44.4322L36.5408 42.9756L40.1051 37.2655L41.9115 38.891L39.4484 44.4322ZM26.8114 27.75V25.9908L28.859 22.9862C30.599 24.4178 32.6489 25.0875 35.2097 25.0875C37.7734 25.0875 39.8252 24.4152 41.5661 22.9807L43.6782 26.0258V27.75C43.6782 32.347 39.9249 36.1938 35.2175 36.1938C30.5267 36.1938 26.8114 32.3596 26.8114 27.75ZM30.3135 37.2654L33.8786 42.9756L30.9702 44.4315L28.5071 38.8902L30.3135 37.2654Z" fill="white" stroke="white" stroke-width="0.3"/>
<path d="M48.2106 48.6937H45.0894C44.5756 48.6937 44.1591 49.1111 44.1591 49.625C44.1591 50.1389 44.5756 50.5562 45.0894 50.5562H48.2106C48.7244 50.5562 49.1409 50.1389 49.1409 49.625C49.1409 49.1111 48.7244 48.6937 48.2106 48.6937Z" fill="white" stroke="white" stroke-width="0.3"/>
</svg>
