<svg width="70" height="70" viewBox="0 0 70 70" fill="none" xmlns="http://www.w3.org/2000/svg">
<rect width="70" height="70" fill="#B4A37B"/>
<path d="M45.1172 15C43.207 15 41.5078 15.9203 40.4391 17.3414C39.3711 15.9211 37.6719 15 35.761 15H25.8781V25.9336H19.1985C18.0758 25.9336 17.0227 26.3703 16.232 27.1633C15.4344 27.9633 14.9969 29.0305 15 30.1641V51.4844C15 52.4281 15.3836 53.3172 16.0805 53.9867C16.7602 54.6406 17.6492 55 18.5844 55H37.3305V36.7133C38.4774 37.2898 39.2672 38.4781 39.2672 39.8469H41.611C41.611 37.9141 43.1836 36.3406 45.1172 36.3406H55V15H45.1172ZM17.8914 28.818C18.2391 28.4695 18.7031 28.2773 19.1985 28.2773H20.957V47.968H18.5844C18.1563 47.968 17.7375 48.0445 17.3438 48.1891V30.1609C17.3422 29.6508 17.5367 29.1742 17.8914 28.818ZM34.9867 52.6562H18.5844C17.9235 52.6562 17.3438 52.1086 17.3438 51.4844C17.3438 50.8602 17.9235 50.3125 18.5844 50.3125H34.9867V52.6562ZM23.3008 47.968V28.2773H25.8781V36.3406H34.9867V47.968H23.3008ZM35.761 33.9969H28.2219V17.3438H35.761C37.6938 17.3438 39.2672 18.9164 39.2672 20.85V35.1672C38.2891 34.432 37.075 33.9969 35.761 33.9969ZM52.6563 33.9969H45.1172C43.8031 33.9969 42.5891 34.4328 41.611 35.1672V20.85C41.611 18.9164 43.1836 17.3438 45.1172 17.3438H52.6563V33.9969Z" fill="white"/>
<path d="M30.5156 19.9523H36.6305V22.296H30.5156V19.9523Z" fill="white"/>
<path d="M30.5156 24.6398H36.6305V26.9835H30.5156V24.6398Z" fill="white"/>
<path d="M30.5156 29.3273H36.6305V31.671H30.5156V29.3273Z" fill="white"/>
<path d="M43.8735 19.9523H49.9884V22.296H43.8735V19.9523Z" fill="white"/>
<path d="M43.8735 24.6398H49.9884V26.9835H43.8735V24.6398Z" fill="white"/>
<path d="M43.8735 29.3273H49.9884V31.671H43.8735V29.3273Z" fill="white"/>
</svg>
