<svg width="70" height="70" viewBox="0 0 70 70" fill="none" xmlns="http://www.w3.org/2000/svg">
<rect width="70" height="70" fill="#6C5845"/>
<g clip-path="url(#clip0)">
<path fill-rule="evenodd" clip-rule="evenodd" d="M48.0023 22.9547V20.6039H50.4195V18.2531H43.3406V15H26.6477V18.2531H19.557V20.6039H21.9867V22.9547H15V55H54.9891V22.9547H48.0023ZM28.9984 17.3508H40.9906V31.9391H28.9984V17.3508ZM33.8187 52.6492H31.4789V48.3664H33.8187V52.6492ZM38.4906 52.6492H36.1703V48.3664H38.4906V52.6492ZM40.8414 52.6492V46.0148H29.1281V52.6492H24.3375V20.6039H26.6477V34.2898H43.3414V20.6039H45.6516V52.6484L40.8414 52.6492ZM36.2391 19.8516V23.6078H33.75V19.8516H31.3984V29.4391H33.75V25.9586H36.2391V29.4391H38.5898V19.8516H36.2391ZM40.8414 41.343H29.0875V43.6937H40.8414V41.343ZM29.0875 36.6414H40.8414V38.9922H29.0875V36.6414ZM17 25H22V53H17V25ZM48 25H53V53H48V25Z" fill="white"/>
</g>
<defs>
<clipPath id="clip0">
<rect width="39.9891" height="40" fill="white" transform="translate(15 15)"/>
</clipPath>
</defs>
</svg>
