<svg width="70" height="92" viewBox="0 0 70 92" fill="none" xmlns="http://www.w3.org/2000/svg">
<rect y="22" width="70" height="70" fill="#4596C1"/>
<path d="M57.5327 46.4729H60.0002V48.934H57.5327V46.4729Z" fill="white"/>
<path d="M57.5327 52.1211H60.0002V54.5823H57.5327V52.1211Z" fill="white"/>
<path d="M49.0636 49.2966H46.5091L44.3911 57.7694H40.228V56.1746C40.228 54.314 38.968 52.743 37.256 52.268C36.964 51.2146 36.2561 50.3319 35.3209 49.8093C35.5194 49.6157 35.7073 49.4098 35.8836 49.1908C36.6039 48.2965 37.0854 47.2309 37.2905 46.1086H38.9967V43.6475H37.2905C36.7105 40.4406 33.8993 38 30.5262 38C27.153 38 24.3427 40.4406 23.7602 43.6483H22.054V46.1094H23.7602C24.0211 47.5467 24.729 48.829 25.7355 49.8077C24.7331 50.3664 23.9916 51.3377 23.7414 52.4903C23.227 52.254 22.6561 52.1211 22.0548 52.1211C19.8186 52.1211 18 53.9399 18 56.1754V74.3509C18.5816 77.5586 21.506 79.9992 24.8783 79.9992H38.9984C42.7915 79.9992 45.8767 76.9129 45.8767 73.1203V65.6877C47.5124 65.166 48.701 63.6318 48.701 61.8246C48.701 60.37 47.9307 59.0919 46.7766 58.3765L48.4311 51.7577H49.0644V53.3517H51.5254V47.7034H49.0644L49.0636 49.2966ZM30.5262 40.4611C32.5351 40.4611 34.234 41.8098 34.768 43.6483H26.2843C26.8184 41.809 28.5172 40.4611 30.5262 40.4611ZM34.7713 46.1094C34.6113 46.6648 34.3423 47.1849 33.969 47.6476C33.1249 48.6953 31.8698 49.2966 30.5262 49.2966C28.5172 49.2966 26.8184 47.9479 26.2843 46.1094H34.7713ZM20.4609 56.1754C20.4609 55.2968 21.1762 54.5815 22.0548 54.5815C22.9334 54.5815 23.6487 55.2968 23.6487 56.1754V71.8906H20.4609V56.1754ZM20.6365 74.3509H23.6479V77.3625C22.2 76.9425 21.0573 75.7997 20.6365 74.3509ZM31.7566 77.5389V73.1211H29.2957V77.5389H26.1088V53.3517C26.1088 52.4731 26.8233 51.7577 27.7027 51.7577H33.3505C33.8829 51.7577 34.3529 52.0202 34.6425 52.4222C33.1643 53.0277 32.12 54.4814 32.12 56.1754V61.8246C32.12 63.6318 33.3079 65.1651 34.9444 65.6877V77.5389H31.7566ZM38.9984 77.5389H37.4053V65.8789H43.4166V73.1203C43.4157 75.5568 41.4339 77.5389 38.9984 77.5389ZM44.6462 63.4177H36.174C35.2955 63.4177 34.581 62.7032 34.581 61.8246V56.1754C34.581 55.2968 35.2955 54.5823 36.1748 54.5823C37.0534 54.5823 37.7679 55.2968 37.7679 56.1754V60.2306H44.6462C45.5248 60.2306 46.2393 60.9451 46.2393 61.8237C46.2393 62.7024 45.5248 63.4177 44.6462 63.4177Z" fill="white"/>
<path d="M53.4761 49.2966H55.9436V51.7577H53.4761V49.2966Z" fill="white"/>
<rect width="70" height="22" fill="black"/>
<path d="M27.7593 16V6.2H25.6033V10.078H21.6273V6.2H19.4713V16H21.6273V12.066H25.6033V16H27.7593ZM41.49 11.1V11.072C41.49 10.372 41.3594 9.71867 41.098 9.112C40.846 8.496 40.4867 7.964 40.02 7.516C39.5627 7.05867 39.0167 6.69933 38.382 6.438C37.7474 6.16733 37.052 6.032 36.296 6.032C35.54 6.032 34.84 6.16733 34.196 6.438C33.5614 6.69933 33.0107 7.06333 32.544 7.53C32.0867 7.98733 31.7274 8.524 31.466 9.14C31.2047 9.74667 31.074 10.4 31.074 11.1V11.128C31.074 11.828 31.2 12.486 31.452 13.102C31.7134 13.7087 32.0727 14.2407 32.53 14.698C32.9967 15.146 33.5474 15.5053 34.182 15.776C34.8167 16.0373 35.512 16.168 36.268 16.168C37.024 16.168 37.7194 16.0373 38.354 15.776C38.998 15.5053 39.5487 15.1413 40.006 14.684C40.4727 14.2173 40.8367 13.6807 41.098 13.074C41.3594 12.458 41.49 11.8 41.49 11.1ZM39.236 11.128C39.236 11.548 39.1614 11.9447 39.012 12.318C38.872 12.682 38.6714 13.004 38.41 13.284C38.158 13.564 37.85 13.7833 37.486 13.942C37.122 14.1007 36.7254 14.18 36.296 14.18C35.8574 14.18 35.456 14.1007 35.092 13.942C34.7374 13.774 34.4247 13.55 34.154 13.27C33.8927 12.99 33.6874 12.6633 33.538 12.29C33.398 11.9167 33.328 11.52 33.328 11.1V11.072C33.328 10.652 33.398 10.26 33.538 9.896C33.6874 9.52267 33.888 9.196 34.14 8.916C34.4014 8.636 34.7094 8.41667 35.064 8.258C35.428 8.09933 35.8294 8.02 36.268 8.02C36.6974 8.02 37.094 8.104 37.458 8.272C37.822 8.43067 38.1347 8.65 38.396 8.93C38.6667 9.21 38.872 9.53667 39.012 9.91C39.1614 10.2833 39.236 10.68 39.236 11.1V11.128ZM52.2226 8.188V6.2H44.1026V8.188H47.0846V16H49.2406V8.188H52.2226Z" fill="white"/>
</svg>
