<svg width="90" height="91" viewBox="0 0 90 91" fill="none" xmlns="http://www.w3.org/2000/svg">
<path d="M26.9852 54.939H30.9632V67.233H33.0512V54.939H37.0292V53.121H26.9852V54.939ZM44.2709 67.467C48.6629 67.467 49.7429 63.975 49.7429 60.177C49.7429 56.397 48.6449 52.887 44.2709 52.887C39.8249 52.887 38.7809 56.415 38.7809 60.177C38.7809 63.957 39.8069 67.467 44.2709 67.467ZM44.2709 65.649C41.6069 65.649 40.8689 63.579 40.8689 60.177C40.8689 56.829 41.5889 54.723 44.2709 54.723C46.9169 54.723 47.6549 56.829 47.6549 60.177C47.6549 63.597 46.8989 65.649 44.2709 65.649ZM54.8906 60.123V54.939H58.0226C59.7686 54.939 60.6506 55.893 60.6506 57.531C60.6506 59.169 59.7686 60.123 58.0226 60.123H54.8906ZM58.2926 61.941C61.1006 61.941 62.7386 60.339 62.7386 57.531C62.7386 54.759 61.1006 53.121 58.2926 53.121H52.8026V67.233H54.8906V61.941H58.2926Z" fill="#A8A49E"/>
<path fill-rule="evenodd" clip-rule="evenodd" d="M45.6558 24.0537L59.4001 38.0537L54.5653 38.0537L45.6558 29.1446L36.7462 38.0537L31.8376 38.0537L45.6558 24.0537Z" fill="#A8A49E"/>
<rect opacity="0.3" x="0.5" y="1.15039" width="89" height="89" stroke="#999999"/>
</svg>
