<svg width="9" height="49" viewBox="0 0 9 49" fill="none" xmlns="http://www.w3.org/2000/svg">
<path d="M0 7.66699C0 7.50961 0.0740971 7.36142 0.2 7.26699L8.2 1.26699C8.52962 1.01978 9 1.25497 9 1.66699V17.667C9 17.8244 8.9259 17.9726 8.8 18.067L0.8 24.067C0.470382 24.3142 0 24.079 0 23.667V7.66699Z" fill="#B58A60"/>
<path d="M0 30.167C0 30.0096 0.0740971 29.8614 0.2 29.767L8.2 23.767C8.52962 23.5198 9 23.755 9 24.167V41.667C9 41.8244 8.9259 41.9726 8.8 42.067L0.8 48.067C0.470382 48.3142 0 48.079 0 47.667V30.167Z" fill="#BCBCBC"/>
</svg>
