<svg width="356" height="168" viewBox="0 0 356 168" fill="none" xmlns="http://www.w3.org/2000/svg">
<path fill-rule="evenodd" clip-rule="evenodd" d="M39.5532 12.9599C38.9984 13.376 38.6719 14.0291 38.6719 14.7226V81.2845C38.6719 83.1002 40.7447 84.1366 42.1973 83.0472L58.8843 70.5319C59.4391 70.1158 59.7656 69.4628 59.7656 68.7692V2.20739C59.7656 0.391697 57.6928 -0.644737 56.2402 0.444679L39.5532 12.9599ZM0.881356 55.1475C0.32653 55.5636 0 56.2166 0 56.9102V123.472C0 125.288 2.07287 126.324 3.52542 125.235L20.2124 112.72C20.7672 112.303 21.0938 111.65 21.0938 110.957V44.395C21.0938 42.5793 19.0209 41.5428 17.5683 42.6322L0.881356 55.1475ZM133.297 50.0376C133.297 48.7566 133.91 47.553 134.947 46.8005L139.709 43.3437C140.371 42.8638 141.297 43.3361 141.297 44.153V82.5715C141.823 82.3241 142.403 82.1914 142.999 82.1914H175.663C176.511 82.1914 176.974 83.1798 176.432 83.8312L173.169 87.7505C172.409 88.6635 171.283 89.1914 170.095 89.1914L141.297 89.1914V122.345C141.297 123.626 140.683 124.83 139.647 125.582L134.884 129.039C134.223 129.519 133.297 129.047 133.297 128.23V50.0376ZM183.947 46.8005C182.91 47.553 182.297 48.7566 182.297 50.0376V128.23C182.297 129.047 183.223 129.519 183.884 129.039L188.647 125.582C189.683 124.83 190.297 123.626 190.297 122.345V44.153C190.297 43.3361 189.371 42.8638 188.709 43.3437L183.947 46.8005ZM219.218 45.5876C220.404 45.6634 221.494 46.2621 222.194 47.2217L241.448 73.6086C241.948 74.2933 241.422 75.2501 240.576 75.196L235.487 74.8706C234.302 74.7948 233.211 74.1961 232.511 73.2365L213.258 46.8496C212.758 46.1649 213.283 45.2081 214.129 45.2622L219.218 45.5876ZM38.6719 99.0977C38.6719 98.4041 38.9984 97.7511 39.5533 97.335L56.2402 84.8197C57.6928 83.7303 59.7657 84.7668 59.7657 86.5824V153.144C59.7657 153.838 59.4391 154.491 58.8843 154.907L42.1973 167.422C40.7448 168.512 38.6719 167.475 38.6719 165.66V99.0977ZM78.2252 55.1475C77.6703 55.5636 77.3438 56.2166 77.3438 56.9102V123.472C77.3438 125.288 79.4167 126.324 80.8692 125.235L97.5562 112.72C98.111 112.303 98.4375 111.65 98.4375 110.957V44.395C98.4375 42.5793 96.3647 41.5428 94.9121 42.6322L78.2252 55.1475ZM243.652 88.17L271.203 47.0777C271.574 46.5238 272.197 46.1914 272.864 46.1914H278.894C279.699 46.1914 280.174 47.0953 279.717 47.7587L250.827 89.6958C250.155 90.671 249.787 91.8232 249.769 93.0073L249.326 121.785C249.308 122.991 248.746 124.124 247.798 124.869L243.915 127.92C243.259 128.436 242.297 127.968 242.297 127.134V92.625C242.297 91.0385 242.769 89.4878 243.652 88.17ZM305.217 53.1914H337.461C337.766 53.1914 338.077 53.2676 338.354 53.4136C351.317 60.2361 351.289 78.8472 338.355 85.484C338.09 85.6203 337.796 85.6914 337.497 85.6914H302.797C301.692 85.6914 300.797 86.5868 300.797 87.6914V125.134C300.797 125.968 301.759 126.436 302.415 125.92L306.65 122.592C307.374 122.023 307.797 121.154 307.797 120.233V94.6914C307.797 93.5868 308.692 92.6914 309.797 92.6914H337.497C338.907 92.6914 340.297 92.3556 341.551 91.7118C359.627 82.4363 359.494 56.6292 341.614 47.2191C340.339 46.5479 338.91 46.1914 337.461 46.1914H300.471C299.617 46.1914 299.156 47.1935 299.712 47.8422L303.698 52.493C304.078 52.9363 304.633 53.1914 305.217 53.1914Z" fill="white"/>
</svg>
